<svg id="Capa_1" xmlns="http://www.w3.org/2000/svg" viewBox="0 0 61.5 41.3"><style>.st1{fill:#f48120}</style><path d="M53.1 40.1H8.3c-3.6 0-6.6-3-6.6-6.6V7.7c0-3.6 3-6.6 6.6-6.6h44.8c3.6 0 6.6 3 6.6 6.6v25.8c0 3.6-3 6.6-6.6 6.6z" fill="#fff"/><path class="st1" d="M60.5 34.4V18C52.7 36.6 27.3 37.6 5.7 40.3h48.9c3.2 0 5.9-2.7 5.9-5.9z"/><path d="M54.4 41.3H7c-3.9 0-7-3.1-7-7V6.9c0-3.9 3.1-7 7-7h47.5c3.9 0 7 3.1 7 7v27.3c0 3.9-3.2 7.1-7.1 7.1zM7 2.9c-2.2 0-4 1.8-4 4v27.3c0 2.2 1.8 4 4 4h47.5c2.2 0 4-1.8 4-4V6.9c0-2.2-1.8-4-4-4H7z" fill="#ededed"/><path d="M13.7 20.4c0 .7-.2 1.3-.5 1.8s-.7 1-1.2 1.3c-.4.2-.8.4-1.2.5s-.9.1-1.5.1H6.7v-7.4h2.7c.6 0 1.1.1 1.6.2.4.1.8.2 1.1.4.5.3.9.7 1.2 1.3.2.5.4 1.2.4 1.8zm-2 0c0-.5-.1-.9-.3-1.2-.2-.3-.5-.6-.8-.8-.2-.1-.4-.2-.6-.2s-.5-.1-.9-.1h-.5v4.6h.5c.5 0 .8 0 1-.1.2 0 .4-.1.6-.2.3-.2.6-.5.8-.8.1-.2.2-.7.2-1.2zm5.2-2.6H15v-1.4h1.9v1.4zm-.1 6.3H15v-5.6h1.8v5.6zm6.5-1.7c0 .6-.3 1-.8 1.4s-1.2.5-2.1.5c-.5 0-.9 0-1.3-.1s-.7-.2-1-.3v-1.5h.2c.1.1.2.1.3.2.1.1.3.2.5.2.2.1.4.1.6.2s.5.1.8.1c.4 0 .6 0 .8-.1.2-.1.3-.2.3-.3 0-.1 0-.2-.1-.3-.1-.1-.3-.1-.6-.2-.1 0-.3-.1-.5-.1s-.4-.1-.6-.1c-.5-.1-.9-.3-1.1-.6-.2-.3-.4-.6-.4-1 0-.5.3-1 .8-1.3.5-.4 1.2-.5 2.1-.5.4 0 .8 0 1.2.1.4.1.7.2.9.3v1.4h-.2c-.3-.2-.6-.3-.9-.4-.5-.3-.9-.3-1.2-.3-.3 0-.5 0-.7.1s-.3.2-.3.2c0 .1 0 .2.1.3.1.1.3.1.6.2.2 0 .4.1.6.1s.4.1.6.1c.5.1.8.3 1 .6.3.3.4.7.4 1.1zm4.1 2c-.5 0-.9-.1-1.3-.2s-.8-.3-1-.5c-.3-.2-.5-.5-.7-.9s-.2-.8-.2-1.3.1-1 .3-1.3c.2-.4.4-.7.7-.9.3-.2.6-.4 1-.5s.8-.2 1.2-.2c.4 0 .7 0 1.1.1l.9.3v1.5h-.3c-.1-.1-.2-.1-.3-.2-.1-.1-.2-.2-.4-.2-.1-.1-.3-.1-.4-.2-.2 0-.3-.1-.6-.1-.5 0-.8.2-1.1.5-.3.3-.4.7-.4 1.2s.1.9.4 1.2c.3.3.6.4 1.1.4.2 0 .4 0 .6-.1s.3-.1.4-.2.2-.1.3-.2c.1-.1.2-.1.2-.2h.3v1.5l-.9.3c-.2.1-.5.2-.9.2zm15.5-5.9l-2.1 5.6h-2l-2.1-5.6h1.9l1.3 3.8 1.3-3.8h1.7zm6.5 3.3h-4.1c0 .4.2.8.5 1s.8.3 1.4.3c.4 0 .7-.1 1.1-.2.4-.1.6-.3.8-.4h.2v1.4c-.4.2-.8.3-1.1.4s-.8.1-1.2.1c-1.1 0-2-.3-2.6-.8s-.9-1.2-.9-2.1.3-1.6.8-2.2c.6-.5 1.3-.8 2.3-.8.9 0 1.6.2 2 .7.5.5.7 1.1.7 2l.1.6zm-1.8-1.2c0-.4-.1-.7-.3-.8-.2-.2-.4-.3-.8-.3-.3 0-.6.1-.8.3-.2.2-.3.5-.4.9h2.3v-.1zm7.1-.3h-.2c-.1 0-.2 0-.4-.1H53c-.2 0-.4.1-.6.2v3.7h-1.7v-5.6h1.8v.8c.4-.3.7-.6 1-.7s.6-.2.8-.2h.4v1.9z"/><g id="layer1_1_" transform="matrix(.94947 0 0 .94948 496.947 38.627)"><path id="path3194_1_" class="st1" d="M-484.7-18.1c0 2-1.6 3.6-3.6 3.6s-3.6-1.6-3.6-3.6 1.6-3.6 3.6-3.6 3.6 1.6 3.6 3.6z"/></g></svg>