<svg xmlns="http://www.w3.org/2000/svg" viewBox="0 0 61.5 41.3"><path d="M53.4 40.5H8.6c-3.6 0-6.6-3-6.6-6.6V8.1c0-3.6 3-6.6 6.6-6.6h44.8c3.6 0 6.6 3 6.6 6.6v25.8c0 3.6-3 6.6-6.6 6.6z" fill="#00adef"/><path d="M54.7 41.7H7.3c-3.9 0-7-3.1-7-7V7.3c0-3.9 3.1-7 7-7h47.5c3.9 0 7 3.1 7 7v27.3c0 3.9-3.2 7.1-7.1 7.1zM7.3 3.3c-2.2 0-4 1.8-4 4v27.3c0 2.2 1.8 4 4 4h47.5c2.2 0 4-1.8 4-4V7.3c0-2.2-1.8-4-4-4H7.3z" fill="#ededed"/><path d="M27.2 22.7L23.9 15h-4v10.9L15.1 15h-3.3L7 26.4h2.9l1-2.5H16l1 2.5h5.5V18l3.6 8.4h2.4l3.6-8.2v8.2h2.6V15.2h-4l-3.3 7.7-.2-.2zm-13.8-1.3h-1.7l1.7-4 1.7 3.7-1.7.3zm37.8-.7l1.9-2.2 2.9-3.2h-3.3l-3.1 3.5-3.1-3.5H36.2v11.1h10.2l3.1-3.7 3.1 3.7H56l-2.9-3.5-1.9-2.2zm-6.4 3.4h-6v-2.2h6v-2.2h-6v-2h6l3.1 3-3.1 3.4z" fill="#fff"/></svg>