<svg xmlns="http://www.w3.org/2000/svg" viewBox="0 0 61.5 41.3"><path d="M53.1 40.2H8.4c-3.6 0-6.6-3-6.6-6.6V7.8c0-3.6 3-6.6 6.6-6.6h44.8c3.6 0 6.6 3 6.6 6.6v25.8c0 3.6-3 6.6-6.7 6.6z" fill="#fff"/><circle cx="22.2" cy="20.7" r="11.3" fill="#ff0016"/><path d="M39.4 9.4c-3.3 0-6.4 1.4-8.6 3.8L29.4 15h2.5c.4.7.7 1.5.9 2.3h-4.3c-.2.7-.4 1.5-.5 2.3h5.4v2.2H28c.1.8.2 1.5.5 2.3H33c-.2.8-.5 1.5-.9 2.3h-2.7l1.4 1.8c4.1 4.7 11.2 5.1 15.9 1s5.1-11.2 1-15.9c-2.1-2.5-5.1-3.9-8.3-3.9z" fill="#ffa916"/><path d="M54.5 41.3H7c-3.9 0-7-3.1-7-7V7c0-3.9 3.1-7 7-7h47.5c3.9 0 7 3.1 7 7v27.3c0 3.9-3.1 7-7 7zM7 3C4.8 3 3 4.8 3 7v27.3c0 2.2 1.8 4 4 4h47.5c2.2 0 4-1.8 4-4V7c0-2.2-1.8-4-4-4H7z" fill="#ededed"/></svg>