<svg xmlns="http://www.w3.org/2000/svg" viewBox="0 0 61.5 41.3"><path d="M53.1 40.1H8.4c-3.6 0-6.6-3-6.6-6.6V7.8c0-3.6 3-6.6 6.6-6.6h44.8c3.6 0 6.6 3 6.6 6.6v25.8c0 3.6-3 6.5-6.7 6.5z" fill="#fff"/><path d="M54.5 41.3H7c-3.9 0-7-3.1-7-7V7c0-3.9 3.1-7 7-7h47.5c3.9 0 7 3.1 7 7v27.3c0 3.9-3.1 7-7 7zM7 3C4.8 3 3 4.8 3 7v27.3c0 2.2 1.8 4 4 4h47.5c2.2 0 4-1.8 4-4V7c0-2.2-1.8-4-4-4H7z" fill="#ededed"/><path d="M23.9 27.9l2.3-14.5H30l-2.3 14.5zm14-14.5c-3.8 0-6.4 1.9-6.4 4.6s1.9 3.1 3.3 3.9c1.4.7 1.9 1.2 1.9 1.7s-1.2 1.5-2.1 1.5c-1.2 0-2.4-.2-3.6-.7h-.5l-.5 3c1.4.4 2.8.6 4.3.5 4 0 6.4-1.9 6.6-4.8s-.9-2.9-3.1-3.9c-2.1-1-2.1-1-2.1-1.7s.7-1.2 2.1-1.2l2.8.5h.2l.5-3.1m9.6-.3h-2.8c-.9 0-1.6.6-1.9 1.5L40.5 28h4l.7-2.2H50l.5 2.2H54l-3.1-14.6m-4.7 9.7c.6-1.3 1.9-5.6 1.9-5.6l.9 5.6h-2.8zm-25.4-9.7L17 23.1l-.5-1.9c-1-2.5-2.8-4.6-5.2-5.8L14.9 28h3.8l6.2-14.5h-4.7" fill="#00589f"/><path d="M13 13.4H7.5v.5c4 .8 7.4 3.7 9 7.5l-1.2-6.8c-.2-.7-.9-1.2-1.7-1.2" fill="#f9a51a"/></svg>