<svg id="Capa_1" xmlns="http://www.w3.org/2000/svg" xmlns:xlink="http://www.w3.org/1999/xlink" viewBox="0 0 62 29.1"><style>.st0{clip-path:url(#SVGID_2_);fill:#fff}.st23{fill-rule:evenodd;clip-rule:evenodd;fill:#69696b}.st26{fill:#c2c6c5}.st101,.st119{clip-path:url(#SVGID_6_);fill:#fb9e01}.st119{fill:#cb7309}</style><defs><path id="SVGID_1_" d="M2.8.4C1.5.4.4 1.5.4 2.8v23.5c0 1.3 1.1 2.4 2.4 2.4h56.4c1.3 0 2.4-1.1 2.4-2.4V2.8c0-1.3-1.1-2.4-2.4-2.4H2.8z"/></defs><clipPath id="SVGID_2_"><use xlink:href="#SVGID_1_" overflow="visible"/></clipPath><path class="st0" d="M59.9 28.6L27.3.4h34.3v28.2z"/><path class="st0" d="M57.1 28.6L24.5.4h2.8l32.6 28.2z"/><path clip-path="url(#SVGID_2_)" fill="#fcfdfc" d="M54.3 28.6L21.7.4h2.8l32.6 28.2z"/><path clip-path="url(#SVGID_2_)" fill="#fafafa" d="M51.5 28.6L18.9.4h2.8l32.6 28.2z"/><path clip-path="url(#SVGID_2_)" fill="#f7f8f7" d="M48.7 28.6L16.1.4h2.8l32.6 28.2z"/><path clip-path="url(#SVGID_2_)" fill="#f4f5f5" d="M45.9 28.6L13.3.4h2.8l32.6 28.2z"/><path clip-path="url(#SVGID_2_)" fill="#f2f3f2" d="M43.1 28.6L10.5.4h2.8l32.6 28.2z"/><path clip-path="url(#SVGID_2_)" fill="#eff0f0" d="M40.3 28.6L7.7.4h2.8l32.6 28.2z"/><path clip-path="url(#SVGID_2_)" fill="#eceeed" d="M37.5 28.6L4.9.4h2.8l32.6 28.2z"/><path clip-path="url(#SVGID_2_)" fill="#eaebeb" d="M34.7 28.6L2.1.4h2.8l32.6 28.2z"/><path clip-path="url(#SVGID_2_)" fill="#e7e9e8" d="M32 28.6L.4 1.4v-1h1.7l32.6 28.2z"/><path clip-path="url(#SVGID_2_)" fill="#e4e6e6" d="M29.2 28.6L.4 3.8V1.4L32 28.6z"/><path clip-path="url(#SVGID_2_)" fill="#e2e4e3" d="M26.4 28.6L.4 6.2V3.8l28.8 24.8z"/><path clip-path="url(#SVGID_2_)" fill="#dfe1e1" d="M23.6 28.6L.4 8.6V6.2l26 22.4z"/><path clip-path="url(#SVGID_2_)" fill="#dddfde" d="M20.8 28.6L.4 11V8.6l23.2 20z"/><path clip-path="url(#SVGID_2_)" fill="#dadcdc" d="M18 28.6L.4 13.5V11l20.4 17.6z"/><path clip-path="url(#SVGID_2_)" fill="#d7dad9" d="M15.2 28.6L.4 15.9v-2.4L18 28.6z"/><path clip-path="url(#SVGID_2_)" fill="#d5d7d7" d="M12.4 28.6L.4 18.3v-2.4l14.8 12.7z"/><path clip-path="url(#SVGID_2_)" fill="#d2d5d4" d="M9.6 28.6L.4 20.7v-2.4l12 10.3z"/><path clip-path="url(#SVGID_2_)" fill="#cfd2d2" d="M6.8 28.6L.4 23.1v-2.4l9.2 7.9z"/><path clip-path="url(#SVGID_2_)" fill="#cdd0cf" d="M4 28.6l-3.6-3v-2.5l6.4 5.5z"/><path clip-path="url(#SVGID_2_)" fill="#cacdcd" d="M1.2 28.6L.4 28v-2.4l3.6 3z"/><path clip-path="url(#SVGID_2_)" fill="#c7cbca" d="M.4 28l.8.6H.4z"/><path d="M8.4 2.9c-2.2 0-4 1.8-4 4 0 .3 0 .5.1.7 0 .5.3.6.5.7.1 0 .2.1.2.1.4 0 .9-.1 1.3-.3.6-.4 1-.9 1.2-1.6-.7.1-1.4.2-2 .3V5.5l4.5-.3v4.2l-1.4.2v-.1c.1-.4.1-.8.2-1.1v-.7c-.2.2-.4.5-.6.7-.2.1-.4.3-.6.5-.2 0-.3.1-.5.2-.3.2-.6.3-.9.3-.3.1-.7.1-1.1.2.7.9 1.8 1.4 3 1.4 2.2 0 4-1.8 4-4 .1-2.3-1.7-4.1-3.9-4.1z" fill-rule="evenodd" clip-rule="evenodd" fill="#eb6619"/><path class="st23" d="M16.2 5.9c-.1-.4-.5-.6-.9-.6-.9 0-1.3.8-1.2 1.5 0 1 .3 1.5 1.4 1.5.3 0 .5 0 .7-.1v-1h-.9v-.5h1.4v1.9c-.4.1-.9.2-1.3.2-.5 0-1-.1-1.4-.4-.4-.4-.6-1-.6-1.5 0-.4.1-.8.3-1.2.3-.6.9-.8 1.5-.8s1.3.3 1.4 1h-.4zm1.7 1.6c0 .5.2.9.7.9.4 0 .6-.2.6-.5h.5c-.1.6-.5.9-1.2.9-.8 0-1.2-.6-1.2-1.4 0-.8.4-1.4 1.2-1.4.8 0 1.1.5 1.1 1.2v.2h-1.7v.1zm1.3-.4c0-.4-.2-.8-.7-.8-.4 0-.7.3-.7.8h1.4zm3.4.3c0 .8-.4 1.4-1.3 1.4S20 8.2 20 7.4c0-.8.5-1.4 1.3-1.4.9 0 1.3.6 1.3 1.4zm-1.3 1c.6 0 .8-.5.8-1 0-.6-.2-1-.8-1-.6 0-.8.5-.8 1 .1.6.3 1 .8 1z"/><path class="st23" d="M23.2 5.7H22v-.8h3.4v.8h-1.2v3h-1v-3z"/><path class="st23" d="M26 6.6c.1-.5.4-.6.8-.6v.8h-.2c-.5 0-.7.3-.7.8v1h-1V6.1h1l.1.5zm3.1 1.8c-.2.3-.5.4-.8.4-.6 0-1-.4-1-.9V6.1h1v1.5c0 .3.1.5.4.5.5 0 .4-.5.4-.6V6.1h1v2.6h-1v-.3zm3-1.5c0-.1 0-.2-.1-.2-.1-.1-.1-.1-.3-.1-.1 0-.2.1-.2.2 0 .2.4.2 1 .4.3.1.5.3.5.7 0 .7-.7.9-1.2.9-.6 0-1.3-.1-1.3-.9h.9c0 .1 0 .2.1.2.1.1.1.1.2.1.2 0 .3-.1.3-.2 0-.5-1.5-.2-1.5-1.1 0-.6.7-.8 1.2-.8.6 0 1.2.2 1.2.9h-.8v-.1zm1.8-.8v-.4l1-.4v.8h.6v.6h-.6v1c0 .1 0 .4.2.4h.4v.6c-.2 0-.4.1-.5.1-.7 0-1.1-.1-1-.9V6.7h-.5v-.6h.4zm2.7.3c0 .1 0 .2-.1.3-.1.1-.2.1-.3.1-.1 0-.2 0-.3-.1-.1-.1-.1-.2-.1-.3 0-.1 0-.2.1-.3.2-.1.3-.1.4-.1.1 0 .2 0 .3.1v.3zm0 0c0-.1 0-.1-.1-.2s-.1-.1-.2-.1-.1 0-.2.1c-.1 0-.1.1-.1.2s0 .1.1.2.1.1.2.1.1 0 .2-.1c0-.1.1-.2.1-.2zm-.3.1v-.1c-.1 0-.1.1 0 .1h-.1v-.3h.2v.2l.1.1v.2h-.2v-.2zm0-.2s0-.1 0 0c0-.1 0-.1 0 0 0-.1 0-.1 0 0 0-.1-.1-.1 0 0z"/><path d="M8.4 2.9c-2.2 0-4 1.8-4 4 0 .3 0 .5.1.7.1.5.3.6.5.7.1 0 .2.1.2.1.4 0 .9-.1 1.3-.3.6-.4 1-.9 1.2-1.6-.7.1-1.3.2-2 .3V5.5l4.5-.3v4.2l-1.4.2v-.1c.1-.4.1-.8.2-1.1v-.7c-.1.2-.3.5-.6.7-.2.1-.4.3-.6.5-.2 0-.3.1-.4.2-.4.2-.7.3-1 .3-.2.1-.7.1-1 .2.7.9 1.8 1.4 3 1.4 2.2 0 4-1.8 4-4 0-2.3-1.8-4.1-4-4.1z" fill-rule="evenodd" clip-rule="evenodd" fill="#ff5b0f"/><path d="M3 8.5c-.8-1.7.2-4.2 2.3-5.6 1.1-.8 2.3-1.1 3.3-.9V.2H2.8C1.4.2.2 1.3.2 2.8v5.9h2.9C3 8.6 3 8.6 3 8.5z" fill-rule="evenodd" clip-rule="evenodd" fill="#044b9d"/><path class="st26" d="M59.2 29.1H2.8c-1.5 0-2.8-1.2-2.8-2.8V2.8C0 1.2 1.2 0 2.8 0h56.4C60.8 0 62 1.2 62 2.8v23.5c0 1.5-1.2 2.8-2.8 2.8zM2.8.4C1.5.4.4 1.5.4 2.8v23.5c0 1.3 1.1 2.4 2.4 2.4h56.4c1.3 0 2.4-1.1 2.4-2.4V2.8c0-1.3-1.1-2.4-2.4-2.4H2.8z"/><path fill="#ff5b0f" d="M.3 14h37.8v.4H.3z"/><path fill="#f98d00" d="M.3 13.2h37.8v.7H.3z"/><path d="M5 17.7c0-.5-.2-.8-.7-.8-.7 0-.8.5-.8.8 0 .3.1.5.4.6l.7.3c.9.3 1 .6 1 1.2 0 .9-.5 1.4-1.4 1.4-.5 0-1-.1-1.3-.7-.1-.2-.1-.6-.1-.8h.5c0 .7.1 1.1.9 1.1.5 0 .9-.3.9-.8 0-.7-.3-.7-.8-.9-.3-.1-.7-.2-.9-.4-.4-.2-.5-.6-.5-1 0-.8.5-1.3 1.3-1.3s1.4.4 1.3 1.3H5zm2.7 3.4v-4.6H10v.5H8.2v1.5h1.7v.5H8.2v1.7H10v.5H7.7zm6.4-3.2c0-.5-.2-1-.8-1-.9 0-.9 1.3-.9 1.9 0 .6 0 2 .9 2 .6 0 .7-.5.8-1v-.3h.5v.3c0 .4 0 .7-.3 1-.2.3-.6.5-1 .5-1.4 0-1.5-1.4-1.5-2.5 0-1 .2-2.3 1.5-2.3.9 0 1.3.7 1.3 1.5h-.5zm2.6-1.4h.5v3.3c0 .4.1.9.9.9s.9-.6.9-.9v-3.3h.5V20c0 .8-.5 1.2-1.4 1.2s-1.4-.4-1.4-1.2v-3.5zm5.5 4.6h-.5v-4.6h1.2c1 0 1.6.3 1.6 1.3 0 .5-.4.9-.9 1 .6.1.7.2.8.9 0 .3 0 .7.1 1 0 .1.1.3.2.3v.1H24c-.1-.3-.2-.9-.2-1.2 0-.5-.2-.9-.8-.9h-.9v2.1zm0-2.5h.8c.2 0 .9 0 .9-.8s-.6-.8-1-.8h-.7v1.6zm4.4 2.5v-4.6h2.3v.5h-1.8v1.5h1.7v.5h-1.7v1.7h1.8v.5h-2.3zm4.4 0v-4.6h1.3c1.4 0 1.6 1.2 1.6 2.3 0 1.1-.3 2.3-1.5 2.3H31zm.5-.5h.8c.8 0 1.1-.6 1-1.9 0-1.1-.2-1.8-1-1.8h-.8v3.7z" fill="#044b9d"/><circle class="st26" cx="48.6" cy="13.9" r="10.9"/><circle cx="48.7" cy="13.5" r="10.8" fill="#fff"/><ellipse class="st26" cx="48.6" cy="26.4" rx="7.4" ry=".6"/><path d="M52.6 12.1V11c0-2 .1-6.1-4-6.1h.1c-4.1 0-4 4.1-4 6.1v1.1h-1.9v-.9c0-4 .6-8 5.9-8h-.1c5.3 0 5.9 4.5 5.9 8v.9h-1.9z" fill="#485150"/><path d="M53.7 12.1v-1.2c0-1.9.1-7.1-5.1-7.1h.1c-5.5 0-5.1 5.2-5.1 7.1v1.2H43V11c0-3.8.5-7.7 5.7-7.7h-.1c5.1 0 5.7 4.3 5.7 7.7v1.1h-.6z" fill="#d4d8d9"/><path d="M52.9 12.1v-1.2c0-1.9-.1-6.1-4.3-6.1h.1c-4.4 0-4.3 4.2-4.3 6.1v1.2h-.6V11c0-3.8.6-6.7 4.8-6.7h-.1c4 0 4.8 3.3 4.8 6.7v1.1h-.4z" opacity=".6" fill="#d4d8d9"/><defs><path id="SVGID_3_" d="M43.4 11.9c-1.7 0-1.7 0-1.7 1.7v8.5c0 .9.7 1.7 1.7 1.7h10.4c.9 0 1.7-.7 1.7-1.7v-8.5c0-1.7 0-1.7-1.7-1.7H43.4z"/></defs><clipPath id="SVGID_4_"><use xlink:href="#SVGID_3_" overflow="visible"/></clipPath><path d="M42.8 11.9h4.9v11.9h-4.9z" fill="#d4d8d9" clip-path="url(#SVGID_4_)"/><path d="M48.8 11.9h6.4v11.9h-6.4zm6.5 0h.2v11.9h-.2z" clip-path="url(#SVGID_4_)" fill="#8d989c"/><defs><path id="SVGID_5_" d="M41.5 22.1c-.3 1.7 0 1.7 1.7 1.7H54c1.7 0 2.1.2 1.7-1.7l-.2-.9H41.8l-.3.9z"/></defs><clipPath id="SVGID_6_"><use xlink:href="#SVGID_5_" overflow="visible"/></clipPath><path d="M41.3 21.1h.2v2.8h-.2zm.2 0h.1v2.8h-.1z" clip-path="url(#SVGID_6_)" fill="#ffcb04"/><path clip-path="url(#SVGID_6_)" fill="#ffc804" d="M41.6 21.1h.1v2.8h-.1z"/><path clip-path="url(#SVGID_6_)" fill="#ffc604" d="M41.6 21.1h.1v2.8h-.1z"/><path clip-path="url(#SVGID_6_)" fill="#fec303" d="M41.7 21.1h.1v2.8h-.1z"/><path clip-path="url(#SVGID_6_)" fill="#fec003" d="M41.8 21.1h.1v2.8h-.1z"/><path clip-path="url(#SVGID_6_)" fill="#febe03" d="M41.9 21.1h.1v2.8h-.1z"/><path clip-path="url(#SVGID_6_)" fill="#febb03" d="M41.9 21.1h.1v2.8h-.1z"/><path clip-path="url(#SVGID_6_)" fill="#fdb803" d="M42 21.1h.1v2.8H42z"/><path clip-path="url(#SVGID_6_)" fill="#fdb603" d="M42.1 21.1h.1v2.8h-.1z"/><path clip-path="url(#SVGID_6_)" fill="#fdb302" d="M42.2 21.1h.1v2.8h-.1z"/><path clip-path="url(#SVGID_6_)" fill="#fdb102" d="M42.2 21.1h.1v2.8h-.1z"/><path clip-path="url(#SVGID_6_)" fill="#fcae02" d="M42.3 21.1h.1v2.8h-.1z"/><path clip-path="url(#SVGID_6_)" fill="#fcab02" d="M42.4 21.1h.1v2.8h-.1z"/><path clip-path="url(#SVGID_6_)" fill="#fca902" d="M42.4 21.1h.1v2.8h-.1z"/><path clip-path="url(#SVGID_6_)" fill="#fca602" d="M42.5 21.1h.1v2.8h-.1z"/><path clip-path="url(#SVGID_6_)" fill="#fba301" d="M42.6 21.1h.1v2.8h-.1z"/><path clip-path="url(#SVGID_6_)" fill="#fba101" d="M42.7 21.1h.1v2.8h-.1z"/><path class="st101" d="M42.7 21.1h.1v2.8h-.1z"/><path class="st101" d="M42.8 21.1h4.9v2.8h-4.9zm4.9 0h.2v2.8h-.2z"/><path clip-path="url(#SVGID_6_)" fill="#f89c01" d="M48 21.1h.2v2.8H48z"/><path clip-path="url(#SVGID_6_)" fill="#f69902" d="M48.2 21.1h.2v2.8h-.2z"/><path clip-path="url(#SVGID_6_)" fill="#f39702" d="M48.4 21.1h.2v2.8h-.2z"/><path clip-path="url(#SVGID_6_)" fill="#f09403" d="M48.6 21.1h.2v2.8h-.2z"/><path clip-path="url(#SVGID_6_)" fill="#ee9203" d="M48.8 21.1h.2v2.8h-.2z"/><path clip-path="url(#SVGID_6_)" fill="#eb9004" d="M49 21.1h.2v2.8H49z"/><path clip-path="url(#SVGID_6_)" fill="#e88d04" d="M49.2 21.1h.2v2.8h-.2z"/><path clip-path="url(#SVGID_6_)" fill="#e58b05" d="M49.4 21.1h.2v2.8h-.2z"/><path clip-path="url(#SVGID_6_)" fill="#e38805" d="M49.7 21.1h.2v2.8h-.2z"/><path clip-path="url(#SVGID_6_)" fill="#e08605" d="M49.9 21.1h.2v2.8h-.2z"/><path clip-path="url(#SVGID_6_)" fill="#dd8406" d="M50.1 21.1h.2v2.8h-.2z"/><path clip-path="url(#SVGID_6_)" fill="#db8106" d="M50.3 21.1h.2v2.8h-.2z"/><path clip-path="url(#SVGID_6_)" fill="#d87f07" d="M50.5 21.1h.2v2.8h-.2z"/><path clip-path="url(#SVGID_6_)" fill="#d57c07" d="M50.7 21.1h.2v2.8h-.2z"/><path clip-path="url(#SVGID_6_)" fill="#d37a08" d="M50.9 21.1h.2v2.8h-.2z"/><path clip-path="url(#SVGID_6_)" fill="#d07808" d="M51.1 21.1h.2v2.8h-.2z"/><path clip-path="url(#SVGID_6_)" fill="#ce7509" d="M51.3 21.1h.2v2.8h-.2z"/><path class="st119" d="M51.6 21.1h.2v2.8h-.2z"/><path class="st119" d="M51.8 21.1h4.1v2.8h-4.1zm4.1 0h.3v2.8h-.3z"/></svg>