<svg id="Capa_1" xmlns="http://www.w3.org/2000/svg" viewBox="0 0 200 124.2"><style>.st0{fill:#86c4d1}.st1{fill:#24384c}</style><path class="st0" d="M70.6 37.4c-.3 0-.6-.1-.8-.3-2-1.7-4.5-3.6-5.2-3.9-1 0-2.8.2-3.4.5-.6.3-1.4 0-1.7-.6-.3-.6 0-1.4.6-1.7 1.3-.6 3.8-.7 4.6-.7.4 0 1.4 0 6.7 4.5.5.4.6 1.2.1 1.8-.2.3-.5.4-.9.4zM24.7 65.5H1.3C.6 65.5 0 65 0 64.3S.6 63 1.3 63h22.2v-9.2c0-.2 0-.4.1-.5.5-1 1.1-2.8 1.1-3.5 0-.1-.4-.7-.7-1.1-.9-1.4-2.3-3.4-2.5-6.4-.3-5.9 3.6-9.4 13.3-12 7.4-2 6.9-5.2 6.1-10.1-.1-.8-.3-1.7-.4-2.6-.1-.7.4-1.3 1.1-1.4.7-.1 1.3.4 1.4 1.1l.3 2.4c.8 4.9 1.6 10.4-8 12.9-10.8 2.9-11.6 6.3-11.4 9.4.1 2.3 1.2 3.9 2 5.1.6.9 1.1 1.6 1.1 2.5 0 1.3-.9 3.4-1.3 4.3v10.2c.3.9-.3 1.4-1 1.4z"/><path class="st0" d="M33.3 65.5c-.3 0-.6-.1-.8-.3l-4.2-3.8c-.3-.2-.4-.6-.4-.9V54c0-.6.4-1.1 1-1.2.1 0 2.4-.5 3.9-2.9 1.5-2.3 1.7-5.6.6-9.8-.2-.7.2-1.4.9-1.5.7-.2 1.4.2 1.5.9 1.2 4.9.9 8.9-1 11.8-1.4 2.2-3.3 3.2-4.5 3.7v5l3.8 3.4c.5.5.6 1.3.1 1.8-.2.2-.5.3-.9.3zm33.5 0H49.2c-.3 0-.6-.1-.8-.3L36.7 54.5c-.3-.3-.4-.7-.4-1.1 0-.4.3-.7.6-1 0 0 3.2-2 3.8-5.4.1-.7.8-1.1 1.5-1 .7.1 1.1.8 1 1.5-.5 3-2.4 5-3.7 6.2L49.7 63h17.1c.7 0 1.3.6 1.3 1.3 0 .7-.6 1.2-1.3 1.2z"/><path class="st0" d="M53.2 55.6c-.2 0-.5-.1-.7-.2l-1.4-1c-.1 0-.1-.1-.2-.1-1.9-1.9 0-5.3.2-5.7.2-.3.5-.5.8-.6l3.2-.7.6-2.3-3.8-3.7C49.4 42.5 41.4 46 35 44.8c-.7-.1-1.1-.8-1-1.5.1-.7.8-1.1 1.5-1 6.8 1.3 16-3.6 16.1-3.6.5-.3 1.1-.2 1.5.2l4.9 4.8c.3.3.4.8.3 1.2l-.9 3.8c-.1.5-.5.8-1 .9l-3.4.7c-.4.9-.6 1.8-.4 2.1l.8.5L59 51c1.5-2.9 3-6.3 3-7.2-.3-.9-4.1-4.4-7.5-7-.4-.3-.6-.9-.4-1.4 0-.1 1.7-5.6-.9-9.6-1-1.6-1.9-2.8-2.7-3.9-1.6-2.2-2.7-3.7-2.5-5.3.1-1 .9-2.3 2.1-4.3.8-1.2 2-3.2 2-3.9-.1-.7-.2-1.1-.3-1.3-.1 0-.3.1-.5.3-.7.5-1.8 1.4-3.2 2.6-3.6 3-6.5 5.3-8.2 6-3.5 1.3-7.5 2-12.1-7.8-.3-.6 0-1.4.6-1.7.6-.3 1.4 0 1.7.6 3.9 8.4 6.7 7.3 8.9 6.5 1.4-.5 5-3.6 7.5-5.5C48 6.9 49.2 5.9 50 5.4c1.1-.8 2.1-1 3-.6 1.4.6 1.6 2.4 1.7 3.4.2 1.3-.8 2.9-2.4 5.5-.7 1.1-1.7 2.7-1.8 3.2-.1.6.9 2 2 3.5.8 1.1 1.7 2.4 2.8 4 2.6 4 1.8 8.9 1.4 10.9 3.7 2.9 7.8 6.5 7.8 8.5s-2.7 7.3-3.5 8.9c-.1.3-.4.5-.7.6l-6.7 2.3c-.1-.1-.3 0-.4 0z"/><path class="st0" d="M32.3 17.6c-9.5 0-16.5-7-16.9-7.3-.4-.5-.4-1.3.1-1.8s1.3-.5 1.8 0c.1.1 10.3 10.1 21.9 5.2.6-.3 1.4 0 1.6.7.3.6 0 1.4-.7 1.6-2.7 1.1-5.3 1.6-7.8 1.6z"/><path class="st0" d="M22.2 21.4c-1.9 0-3.6-.5-4.8-1.1-.6-.3-.9-1.1-.6-1.7.3-.6 1-.9 1.7-.6.3.1 6.4 2.9 9.3-2.7.3-.6 1.1-.9 1.7-.5.6.3.9 1.1.5 1.7-2 3.8-5 4.9-7.8 4.9zm19.4 44.1c-.4 0-.7-.2-1-.5l-9.4-11.9c-.4-.5-.3-1.3.2-1.8.5-.4 1.3-.3 1.8.2l9.4 11.9c.4.5.3 1.3-.2 1.8-.3.2-.5.3-.8.3zm29-35.1c-.2 0-.5-.1-.7-.2-.8-.5-3.1-1.9-4.1-2.3-.9-.2-6 .3-10.2.9-.7.1-1.3-.4-1.4-1.1-.1-.7.4-1.3 1.1-1.4 2.8-.3 9.7-1.3 11.3-.7 1.6.6 4.3 2.3 4.7 2.5.6.4.8 1.2.4 1.7-.3.4-.7.6-1.1.6zm58.8 7c-.4 0-.7-.2-1-.4-.4-.5-.4-1.3.1-1.8 5.3-4.5 6.3-4.5 6.7-4.5.8 0 3.3.2 4.6.7.6.3.9 1 .6 1.7-.3.6-1 .9-1.7.6-.6-.3-2.5-.5-3.4-.5-.7.3-3.2 2.2-5.2 3.9-.1.2-.4.3-.7.3zm6.1-4.2zm63.2 32.3h-23.5c-.7 0-1.3-.6-1.3-1.3V54.1c-.4-.8-1.3-3-1.3-4.3 0-.8.5-1.6 1.1-2.5.9-1.3 1.9-2.8 2-5.1.2-3.1-.6-6.6-11.4-9.4-9.6-2.5-8.7-8.1-8-12.9.1-.8.3-1.6.3-2.4.1-.7.7-1.2 1.4-1.1.7.1 1.2.7 1.1 1.4-.1.9-.2 1.7-.4 2.6-.8 4.9-1.3 8.2 6.1 10.1 9.7 2.6 13.6 6 13.3 12-.2 3-1.5 5.1-2.5 6.4-.3.4-.6.9-.7 1.1 0 .6.7 2.4 1.1 3.4.1.2.1.3.1.5V63h22.2c.7 0 1.3.6 1.3 1.3.4.7-.2 1.2-.9 1.2z"/><path class="st0" d="M166.7 65.5c-.3 0-.7-.1-.9-.4-.5-.5-.4-1.3.1-1.8l3.8-3.4v-5c-1.2-.4-3.1-1.5-4.5-3.7-1.9-2.9-2.2-6.9-1-11.8.2-.7.9-1.1 1.5-.9.7.2 1.1.9.9 1.5-1 4.2-.8 7.5.6 9.8 1.5 2.4 3.8 2.9 3.9 2.9.6.1 1 .6 1 1.2v6.5c0 .4-.2.7-.4.9l-4.2 3.8c-.2.3-.5.4-.8.4zm-15.9 0h-17.6c-.7 0-1.3-.6-1.3-1.3 0-.7.6-1.3 1.3-1.3h17.1l10.3-9.3c-1.3-1.1-3.1-3.2-3.7-6.2-.1-.7.3-1.3 1-1.5.7-.1 1.3.3 1.5 1 .6 3.5 3.8 5.4 3.8 5.4.3.2.6.6.6 1s-.1.8-.4 1.1l-11.7 10.7c-.3.3-.6.4-.9.4z"/><path class="st0" d="M146.8 55.6c-.1 0-.3 0-.4-.1l-6.7-2.3c-.3-.1-.6-.3-.7-.6-.8-1.6-3.5-6.8-3.5-8.9 0-2 4.1-5.6 7.8-8.5-.4-2-1.1-6.8 1.4-10.9 1-1.6 2-3 2.8-4 1.1-1.6 2.1-2.9 2-3.5-.1-.5-1.1-2.1-1.8-3.2-1.6-2.6-2.6-4.2-2.4-5.5.1-1 .3-2.8 1.7-3.4.9-.4 1.9-.2 3 .6.7.5 2 1.5 3.4 2.7 2.4 2 6.1 5 7.5 5.5 2.2.9 5 1.9 8.9-6.5.3-.6 1-.9 1.7-.6.6.3.9 1 .6 1.7-4.5 9.7-8.6 9.1-12.1 7.8-1.6-.6-4.5-3-8.2-6-1.4-1.1-2.6-2.1-3.2-2.6-.2-.2-.4-.2-.5-.3-.1.2-.2.5-.3 1.3 0 .6 1.3 2.6 2 3.8 1.2 2 2 3.3 2.1 4.3.2 1.6-.9 3-2.5 5.3-.8 1.1-1.7 2.3-2.7 3.9-2.6 4.1-.9 9.6-.9 9.6.2.5 0 1.1-.4 1.4-3.4 2.6-7.2 6-7.5 7.1 0 .8 1.5 4.3 3 7.2l5.6 1.9.8-.5c.2-.3 0-1.2-.4-2.1l-3.4-.7c-.5-.1-.8-.5-1-.9l-.9-3.8c-.1-.4 0-.9.3-1.2l4.9-4.8c.4-.4 1-.5 1.5-.2.1 0 9.3 4.9 16.1 3.6.7-.1 1.3.3 1.5 1 .1.7-.3 1.3-1 1.5-6.4 1.2-14.3-2.2-16.9-3.5l-3.8 3.7.6 2.3 3.2.7c.4.1.7.3.8.6.2.4 2.1 3.8.2 5.7-.1.1-.1.1-.2.1l-1.4 1c-.1.2-.4.3-.6.3z"/><path class="st0" d="M167.7 17.6c-2.4 0-5-.5-7.7-1.6-.6-.3-.9-1-.7-1.6.3-.6 1-.9 1.6-.7 11.6 4.9 21.8-5.1 21.9-5.2.5-.5 1.3-.5 1.8 0s.5 1.3 0 1.8c-.4.3-7.4 7.3-16.9 7.3z"/><path class="st0" d="M177.8 21.4c-2.8 0-5.9-1.1-7.8-4.9-.3-.6-.1-1.4.5-1.7.6-.3 1.4-.1 1.7.5 2.9 5.6 9 2.8 9.3 2.7.6-.3 1.4 0 1.7.6.3.6 0 1.4-.6 1.7-1.1.6-2.9 1.1-4.8 1.1zm-19.4 44.1c-.3 0-.5-.1-.8-.3-.5-.4-.6-1.2-.2-1.8l9.4-11.9c.4-.5 1.2-.6 1.8-.2.5.4.6 1.2.2 1.8L159.4 65c-.2.4-.6.5-1 .5zm-29-35.1c-.4 0-.8-.2-1.1-.6-.4-.6-.2-1.4.4-1.7.3-.2 3.1-2 4.7-2.5 1.6-.6 8.5.4 11.4.8.7.1 1.2.7 1.1 1.4-.1.7-.7 1.2-1.4 1.1-4.2-.6-9.3-1.2-10.2-.9-1.1.4-3.3 1.8-4.1 2.3-.3.1-.6.1-.8.1z"/><path class="st0" d="M100.1 73.6c-23.3 0-30.6-20.8-30.6-26.7V6.4c0-.5.3-1 .9-1.2C70.9 5 85.7 0 100 0s29.2 5 29.8 5.2c.5.2.9.7.9 1.2v40.5c0 5.9-7.4 26.7-30.6 26.7zM72 7.3v39.6c0 5.3 6.7 24.2 28.1 24.2h.1c21.3 0 28.1-18.9 28.1-24.2V7.3c-3.4-1.1-16.1-4.8-28.1-4.8-12.1 0-24.9 3.7-28.2 4.8z"/><path class="st0" d="M100.1 65.4c-18.2 0-23.9-16.3-23.9-20.9V13.4c0-.5.3-1 .9-1.2.5-.2 11.9-4 23-4s22.5 3.9 23 4c.5.2.9.7.9 1.2v31.2c-.1 4.6-5.8 20.8-23.9 20.8zM78.7 14.3v30.3c0 2.4 4 18.3 21.3 18.3s21.3-15.9 21.3-18.3V14.3c-2.9-.9-12.4-3.6-21.3-3.6s-18.4 2.7-21.3 3.6z"/><path class="st1" d="M34.4 108.3c-.4 0-.8-.1-1.1-.4-.3-.3-.5-.6-.7-1l-2.8-11-2.9 10.9c-.2.4-.4.8-.7 1-.3.3-.7.4-1.1.4-.4 0-.8-.1-1.1-.4-.3-.2-.5-.6-.7-1l-4.6-15.4c-.1-.3-.1-.5-.1-.8 0-.5.1-.9.4-1.2.2-.2.6-.5 1.2-.5.4 0 .8.1 1.1.4.3.2.5.6.7 1l3.2 11L28 90.6c.1-.4.3-.7.7-.9.3-.2.7-.3 1.1-.3.4 0 .7.1 1 .3.3.2.6.6.7.9l2.9 10.9 3.2-11.2c.1-.4.3-.7.7-.9.3-.2.7-.3 1.1-.3.6 0 1 .3 1.2.5.2.3.4.7.4 1.1 0 .3 0 .6-.1.8l-4.6 15.3c-.2.4-.4.7-.7 1-.4.4-.8.5-1.2.5zm15.4 0c-.5 0-.9-.2-1.3-.5-.3-.3-.5-.8-.5-1.3V90.9c0-.5.2-1 .5-1.3.3-.3.8-.5 1.3-.5h10.4c.5 0 .9.2 1.3.5.3.3.5.8.5 1.3s-.2.9-.5 1.2c-.3.3-.8.5-1.3.5h-8.6v4.3h6c.5 0 .9.2 1.3.5.3.3.5.8.5 1.2 0 .5-.2.9-.5 1.2-.3.3-.8.5-1.3.5h-6v4.5h8.6c.5 0 .9.2 1.3.5.3.3.5.7.5 1.2s-.2.9-.5 1.3c-.3.3-.8.5-1.3.5H49.8zm21.8 0c-.5 0-.9-.2-1.3-.5-.3-.3-.5-.8-.5-1.3V90.9c0-.5.2-.9.5-1.3.3-.3.8-.5 1.3-.5s.9.2 1.3.5c.3.3.5.8.5 1.3v13.7h7.7c.5 0 .9.2 1.3.5.3.3.5.8.5 1.3s-.2.9-.5 1.3c-.3.3-.8.5-1.3.5h-9.5zm25.7.2c-1.7 0-3.4-.4-4.8-1.3s-2.6-2.1-3.4-3.6c-.8-1.5-1.2-3.2-1.2-5 0-1.8.4-3.4 1.2-4.9.8-1.5 2-2.7 3.4-3.6 1.4-.9 3.1-1.3 4.8-1.3 1.2 0 2.3.2 3.2.5.9.3 1.8.9 2.8 1.6.3.2.4.4.6.7.1.2.1.5.1.8 0 .5-.2.9-.5 1.2-.3.3-.7.5-1.2.5-.4 0-.8-.1-1.2-.4-.6-.5-1.1-.9-1.7-1.1-.5-.2-1.2-.3-2.1-.3-1.1 0-2.1.3-3 .8-.9.6-1.6 1.4-2.2 2.3-.5 1-.8 2.1-.8 3.2 0 1.2.3 2.3.8 3.2.5 1 1.3 1.8 2.2 2.3.9.6 1.9.8 3 .8 1.3 0 2.6-.5 3.9-1.4.4-.3.8-.4 1.1-.4.5 0 .9.2 1.2.5.3.3.5.7.5 1.2s-.2.9-.5 1.3c-1.9 1.7-4 2.4-6.2 2.4zm23.9 0c-1.9 0-3.6-.4-5-1.3-1.5-.8-2.6-2-3.5-3.5-.8-1.5-1.2-3.2-1.2-5.1 0-1.9.4-3.6 1.2-5.1.8-1.5 2-2.7 3.5-3.5 1.5-.8 3.2-1.3 5-1.3 1.9 0 3.6.4 5 1.3 1.5.8 2.7 2 3.5 3.5.8 1.5 1.2 3.2 1.2 5.1 0 1.9-.4 3.6-1.2 5.1-.8 1.5-2 2.7-3.5 3.5-1.5.9-3.2 1.3-5 1.3zm0-16.2c-1.2 0-2.3.3-3.2.8-.9.6-1.7 1.3-2.2 2.3-.5 1-.8 2.1-.8 3.3 0 1.2.3 2.3.8 3.3s1.3 1.7 2.2 2.3c.9.6 2 .8 3.2.8 1.2 0 2.3-.3 3.2-.8.9-.6 1.7-1.3 2.2-2.3.5-1 .8-2.1.8-3.3 0-1.2-.3-2.3-.8-3.3s-1.3-1.7-2.2-2.3c-1-.5-2-.8-3.2-.8zm35.3 16c-.5 0-.9-.2-1.3-.5-.3-.3-.5-.8-.5-1.3v-8.7l-4.4 5.2c-.4.6-.9.9-1.6.9-.7 0-1.3-.4-1.7-1.1l-4.3-4.9v8.6c0 .5-.2.9-.5 1.3-.3.3-.8.5-1.3.5s-.9-.2-1.3-.5c-.3-.3-.5-.8-.5-1.3V90.9c0-.5.2-.9.5-1.3.3-.3.8-.5 1.3-.5.7 0 1.2.3 1.6 1l6.3 8.8 6.1-8.8c.4-.7.9-1 1.6-1 .5 0 .9.2 1.3.5.3.3.5.8.5 1.3v15.6c0 .5-.2 1-.5 1.3-.3.3-.8.5-1.3.5zm12.8 0c-.5 0-.9-.2-1.3-.5-.3-.3-.5-.8-.5-1.3V90.9c0-.5.2-1 .5-1.3.3-.3.8-.5 1.3-.5h10.4c.5 0 .9.2 1.3.5.3.3.5.8.5 1.3s-.2.9-.5 1.2c-.3.3-.8.5-1.3.5h-8.6v4.3h6c.5 0 .9.2 1.3.5.3.3.5.8.5 1.2 0 .5-.2.9-.5 1.2-.3.3-.8.5-1.3.5h-6v4.5h8.6c.5 0 .9.2 1.3.5.3.3.5.7.5 1.2s-.2.9-.5 1.3c-.3.3-.8.5-1.3.5h-10.4z"/><path class="st0" d="M51.8 124c-.2 0-.3-.1-.4-.2s-.2-.3-.2-.4v-2.3h-3.5v2.3c0 .2-.1.3-.2.4-.1.1-.3.2-.5.2s-.3-.1-.4-.2c-.1-.1-.2-.3-.2-.4v-5.6c0-.2.1-.3.2-.5.1-.1.3-.2.4-.2.2 0 .3.1.5.2.1.1.2.3.2.5v2.2h3.5v-2.2c0-.2.1-.3.2-.5.1-.1.3-.2.4-.2.2 0 .3.1.4.2.1.1.2.3.2.5v5.6c0 .2-.1.3-.2.5 0 .1-.2.1-.4.1zm6.8.1c-.7 0-1.3-.2-1.8-.5s-1-.7-1.2-1.3c-.3-.5-.4-1.1-.4-1.8s.1-1.3.4-1.8c.3-.5.7-1 1.2-1.3.5-.3 1.1-.5 1.8-.5s1.3.2 1.8.5 1 .7 1.2 1.3c.3.5.4 1.1.4 1.8s-.1 1.3-.4 1.8c-.3.5-.7 1-1.2 1.3-.5.4-1.1.5-1.8.5zm0-5.9c-.4 0-.8.1-1.2.3-.3.2-.6.5-.8.8-.2.4-.3.8-.3 1.2 0 .4.1.8.3 1.2.2.4.5.6.8.8s.7.3 1.2.3c.4 0 .8-.1 1.2-.3.3-.2.6-.5.8-.8.2-.4.3-.8.3-1.2 0-.4-.1-.8-.3-1.2-.2-.4-.5-.6-.8-.8-.4-.2-.8-.3-1.2-.3zm7.7 5.8c-.2 0-.3-.1-.4-.2-.1-.1-.2-.3-.2-.4v-5.1h-1.6c-.2 0-.3-.1-.4-.2-.1-.1-.2-.3-.2-.4s.1-.3.2-.4c.1-.1.3-.2.4-.2h4.4c.2 0 .3.1.4.2.1.1.2.3.2.4s-.1.3-.2.4c-.1.1-.3.2-.4.2H67v5.1c0 .2-.1.3-.2.4-.1.2-.3.2-.5.2zm5.7 0c-.2 0-.3-.1-.4-.2-.1-.1-.2-.3-.2-.4v-5.6c0-.2.1-.3.2-.5.1-.1.3-.2.4-.2h3.8c.2 0 .3.1.4.2.1.1.2.3.2.4 0 .2-.1.3-.2.4-.1.1-.3.2-.4.2h-3.1v1.6h2.2c.2 0 .3.1.4.2.1.1.2.3.2.4s-.1.3-.2.4c-.1.1-.3.2-.4.2h-2.2v1.7h3.1c.2 0 .3.1.4.2.1.1.2.3.2.4 0 .2-.1.3-.2.4-.1.1-.3.2-.4.2H72zm7.5 0c-.2 0-.3-.1-.4-.2-.1-.1-.2-.3-.2-.4v-5.6c0-.2.1-.3.2-.4.1-.1.3-.2.4-.2.2 0 .3.1.4.2.1.1.2.3.2.4v5h2.8c.2 0 .3.1.4.2.1.1.2.3.2.4s-.1.3-.2.4c-.1.1-.3.2-.4.2h-3.4zm12 .2c-.6 0-1.1-.2-1.4-.5-.4-.3-.5-.8-.5-1.3 0-.4.1-.8.4-1.1.2-.3.5-.6 1-.9l-.3-.3c-.4-.4-.6-.9-.6-1.4 0-.3.1-.6.2-.8l.6-.6c.3-.1.6-.2.9-.2.3 0 .6.1.9.2.3.1.5.3.6.6.2.3.2.5.2.8 0 .4-.1.7-.3.9-.1.2-.4.5-.7.7l1.2 1.2.5-.6c.1-.2.3-.2.4-.2.1 0 .2.1.3.2.1.1.2.3.2.4 0 .1-.1.3-.2.4l-.6.6.8.8c.1.1.2.3.2.4 0 .1-.1.3-.2.4-.1.1-.3.2-.4.2-.1 0-.3-.1-.4-.2l-.8-.8c-.3.3-.6.6-.9.8-.3.2-.7.3-1.1.3zm.1-3.2c-.3.2-.5.5-.7.7-.1.2-.2.4-.2.6 0 .3.1.4.2.6.1.1.3.2.6.2s.5-.1.7-.2c.2-.1.4-.3.7-.5l-1.3-1.4zm.1-2.9c-.2 0-.3.1-.5.2-.1.1-.2.2-.2.4s.1.5.3.7l.3.3c.3-.2.4-.4.4-.5.1-.1.1-.3.1-.5s-.1-.3-.2-.4c.1-.2 0-.2-.2-.2zm15.5 5.9c-.2 0-.3-.1-.4-.2s-.2-.3-.2-.4v-2.3h-3.5v2.3c0 .2-.1.3-.2.4-.1.1-.3.2-.5.2s-.3-.1-.4-.2-.2-.3-.2-.4v-5.6c0-.2.1-.3.2-.5.1-.1.3-.2.4-.2.2 0 .3.1.5.2.1.1.2.3.2.5v2.2h3.5v-2.2c0-.2.1-.3.2-.5.1-.1.3-.2.4-.2.2 0 .3.1.4.2.1.1.2.3.2.5v5.6c0 .2-.1.3-.2.5-.1.1-.3.1-.4.1zm6.7.1c-.7 0-1.3-.2-1.8-.5s-1-.7-1.2-1.3c-.3-.5-.4-1.1-.4-1.8s.1-1.3.4-1.8c.3-.5.7-1 1.2-1.3.5-.3 1.1-.5 1.8-.5s1.3.2 1.8.5 1 .7 1.2 1.3c.3.5.4 1.1.4 1.8s-.1 1.3-.4 1.8c-.3.5-.7 1-1.2 1.3-.5.4-1.1.5-1.8.5zm0-5.9c-.4 0-.8.1-1.2.3-.3.2-.6.5-.8.8-.2.4-.3.8-.3 1.2 0 .4.1.8.3 1.2.2.4.5.6.8.8.3.2.7.3 1.2.3s.8-.1 1.2-.3.6-.5.8-.8c.2-.4.3-.8.3-1.2 0-.4-.1-.8-.3-1.2-.2-.4-.5-.6-.8-.8-.4-.2-.8-.3-1.2-.3zm8.4 5.9c-.6 0-1.1-.1-1.6-.4-.5-.3-.8-.6-1-1.1 0-.1-.1-.2-.1-.2 0-.1.1-.3.1-.4.1-.1.2-.2.4-.2h.1c.1 0 .3 0 .4.1l.3.3c.1.2.2.3.5.5.3.1.6.2.9.2.4 0 .7-.1.9-.3.2-.2.3-.4.3-.6 0-.3-.1-.5-.3-.7-.2-.2-.5-.3-1-.4-.7-.1-1.3-.3-1.7-.7-.4-.4-.7-.8-.7-1.4 0-.4.1-.7.3-1 .2-.3.5-.5.9-.7.4-.1.8-.2 1.3-.2s1 .1 1.3.3c.4.2.7.5.9.9.1.1.1.3.1.4 0 .2-.1.3-.3.5-.1.1-.2.1-.3.1-.1 0-.2 0-.3-.1-.1-.1-.2-.1-.2-.2-.1-.2-.3-.4-.5-.5-.2-.1-.4-.2-.8-.2s-.7.1-.9.2c-.2.1-.3.3-.3.5s.1.4.3.6c.2.2.6.3 1.1.3.7.1 1.3.3 1.7.7.4.4.6.9.6 1.5 0 .4-.1.8-.4 1.1-.2.3-.6.6-.9.7-.3.3-.7.4-1.1.4zm6.9-.1c-.2 0-.3-.1-.4-.2s-.2-.3-.2-.4v-5.1H127c-.2 0-.3-.1-.4-.2-.1-.1-.2-.3-.2-.4s.1-.3.2-.4c.1-.1.3-.2.4-.2h4.4c.2 0 .3.1.4.2.1.1.2.3.2.4s-.1.3-.2.4c-.1.1-.3.2-.4.2h-1.6v5.1c0 .2-.1.3-.2.5-.1.1-.2.1-.4.1zm5.7 0c-.2 0-.3-.1-.4-.2s-.2-.3-.2-.4v-5.6c0-.2.1-.3.2-.5.1-.1.3-.2.4-.2h3.8c.2 0 .3.1.4.2.1.1.2.3.2.4 0 .2-.1.3-.2.4-.1.1-.3.2-.4.2h-3.1v1.6h2.2c.2 0 .3.1.4.2.1.1.2.3.2.4s-.1.3-.2.4c-.1.1-.3.2-.4.2h-2.2v1.7h3.1c.2 0 .3.1.4.2.1.1.2.3.2.4 0 .2-.1.3-.2.4-.1.1-.3.2-.4.2h-3.8zm7.5 0c-.2 0-.3-.1-.4-.2-.1-.1-.2-.3-.2-.4v-5.6c0-.2.1-.3.2-.4s.3-.2.4-.2c.2 0 .3.1.4.2s.2.3.2.4v5h2.8c.2 0 .3.1.5.2.1.1.2.3.2.4s-.1.3-.2.4-.3.2-.4.2h-3.5zm8.6.1c-.6 0-1.1-.1-1.6-.4-.5-.3-.8-.6-1-1.1 0-.1-.1-.2-.1-.2 0-.1.1-.3.1-.4.1-.1.2-.2.4-.2h.1c.1 0 .2 0 .4.1l.3.3c.1.2.2.3.5.5.3.1.6.2.9.2.4 0 .7-.1.9-.3.2-.2.3-.4.3-.6 0-.3-.1-.5-.3-.7-.2-.2-.5-.3-1-.4-.7-.1-1.3-.3-1.7-.7-.4-.4-.7-.8-.7-1.4 0-.4.1-.7.3-1 .2-.3.5-.5.9-.7.4-.1.8-.2 1.3-.2s1 .1 1.3.3c.4.2.7.5.9.9.1.1.1.3.1.4 0 .2-.1.3-.3.5-.1.1-.2.1-.3.1-.1 0-.2 0-.3-.1-.1-.1-.2-.1-.2-.2-.1-.2-.3-.4-.5-.5-.2-.1-.4-.2-.8-.2s-.7.1-.9.2c-.2.1-.3.3-.3.5s.1.4.3.6c.2.2.6.3 1.1.3.7.1 1.3.3 1.7.7.4.4.6.9.6 1.5 0 .4-.1.8-.4 1.1-.2.3-.6.6-.9.7-.3.3-.7.4-1.1.4z"/><path class="st1" d="M106 46.4c-.5 0-1-.1-1.5-.4-.4-.3-.7-.6-.8-1l-3.6-11-3.8 11c-.2.4-.5.8-.9 1-.4.3-.9.4-1.4.4-.5 0-1-.1-1.4-.4-.4-.2-.7-.6-.9-1l-5.9-15.4c-.1-.3-.2-.5-.2-.8 0-.5.2-.9.6-1.2.3-.2.7-.5 1.5-.5.5 0 1 .1 1.4.4.4.2.7.6.9 1l4 11 3.7-10.8c.1-.4.4-.7.8-.9.4-.2.9-.3 1.4-.3.5 0 .9.1 1.3.3.4.2.7.6.9.9l3.8 10.9 4.1-11.2c.1-.4.4-.7.9-.9.4-.2.9-.3 1.4-.3.8 0 1.3.3 1.5.5.3.3.5.7.5 1.1 0 .3-.1.6-.2.8L108.3 45c-.2.4-.5.7-.9 1-.4.3-.9.4-1.4.4z"/></svg>