<svg xmlns="http://www.w3.org/2000/svg" viewBox="0 0 61.3 16.3"><path d="M7.4 0H2.6c-.3 0-.6.2-.7.6L0 12.8c0 .2.1.5.4.5h2.3c.3 0 .6-.2.7-.6l.5-3.3c.1-.3.3-.6.7-.6H6c3.1 0 5-1.5 5.4-4.5.2-1.3 0-2.4-.6-3.1C10.2.4 9 0 7.4 0zm.5 4.5c-.2 1.7-1.6 1.7-2.8 1.7h-.7L4.9 3c0-.2.2-.3.4-.3h.3c.9 0 1.7 0 2.1.5.2.2.3.7.2 1.3zm13.7-.1h-2.3c-.2 0-.4.1-.4.3l-.1.6-.2-.2c-.5-.7-1.6-1-2.7-1-2.5 0-4.7 1.9-5.1 4.6-.2 1.3.1 2.6.9 3.5.7.8 1.7 1.2 2.9 1.2 2 0 3.2-1.3 3.2-1.3l-.1.6c0 .2.1.5.4.5h2.1c.3 0 .6-.2.7-.6L22 4.9c.1-.3-.1-.5-.4-.5zm-3.2 4.5c-.2 1.3-1.3 2.2-2.6 2.2-.7 0-1.2-.2-1.5-.6-.3-.5-.4-1-.3-1.7.2-1.3 1.3-2.2 2.6-2.2.6 0 1.2.2 1.5.6.3.5.4 1 .3 1.7zm15.4-4.5h-2.3c-.2 0-.4.1-.5.3l-3.2 4.7-1.3-4.5c-.1-.3-.3-.5-.6-.5h-2.3c-.3 0-.5.3-.4.5l2.5 7.4-2.4 3.4c-.2.3 0 .6.3.6h2.3c.2 0 .4-.1.5-.3L34 5c.3-.2.1-.6-.2-.6z" fill="#253b80"/><path d="M41.4 0h-4.8c-.3 0-.6.2-.6.6l-2 12.2c0 .2.1.5.4.5h2.4c.2 0 .4-.2.5-.4l.5-3.5c.1-.3.3-.6.7-.6H40c3.1 0 5-1.5 5.4-4.5.2-1.3 0-2.4-.6-3.1C44.2.4 43 0 41.4 0zm.5 4.5c-.3 1.7-1.6 1.7-2.8 1.7h-.7l.5-3.2c0-.2.2-.3.4-.3h.3c.9 0 1.7 0 2.1.5.3.2.3.7.2 1.3zm13.8-.1h-2.3c-.2 0-.4.1-.4.3l-.1.6-.2-.2c-.5-.7-1.6-1-2.7-1-2.5 0-4.7 1.9-5.1 4.6-.2 1.3.1 2.6.9 3.5.7.8 1.7 1.2 2.9 1.2 2 0 3.2-1.3 3.2-1.3l-.1.6c0 .2.1.5.4.5h2.1c.3 0 .6-.2.7-.6l1-7.7c.1-.3-.1-.5-.3-.5zm-3.2 4.5c-.2 1.3-1.3 2.2-2.6 2.2-.7 0-1.2-.2-1.5-.6-.4-.5-.5-1-.4-1.7.2-1.3 1.3-2.2 2.6-2.2.6 0 1.2.2 1.5.6.3.5.5 1 .4 1.7zM58.3.3l-2 12.5c0 .2.1.5.4.5h2c.3 0 .6-.2.7-.6L61.3.5c0-.2-.1-.5-.4-.5h-2.2c-.2 0-.3.1-.4.3z" fill="#179bd7"/></svg>