<?xml version="1.0" encoding="utf-8"?>
<!-- Generator: Adobe Illustrator 21.0.0, SVG Export Plug-In . SVG Version: 6.00 Build 0)  -->
<svg version="1.1" id="Capa_1" xmlns="http://www.w3.org/2000/svg" xmlns:xlink="http://www.w3.org/1999/xlink" x="0px" y="0px"
	 viewBox="0 0 61.5 41.3" style="enable-background:new 0 0 61.5 41.3;" xml:space="preserve">
<style type="text/css">
	.st0{fill:#FFFFFF;}
	.st1{fill:#F48120;}
	.st2{fill:#EDEDED;}
	.st3{enable-background:new    ;}
</style>
<g>
	<path class="st0" d="M53.1,40.1H8.3c-3.6,0-6.6-3-6.6-6.6V7.7c0-3.6,3-6.6,6.6-6.6h44.8c3.6,0,6.6,3,6.6,6.6v25.8
		C59.7,37.1,56.7,40.1,53.1,40.1z"/>
</g>
<path class="st1" d="M60.5,34.4V18C52.7,36.6,27.3,37.6,5.7,40.3h48.9C57.8,40.3,60.5,37.6,60.5,34.4z"/>
<g>
	<path class="st2" d="M54.4,41.3H7c-3.9,0-7-3.1-7-7V6.9c0-3.9,3.1-7,7-7h47.5c3.9,0,7,3.1,7,7v27.3C61.5,38.1,58.3,41.3,54.4,41.3z
		 M7,2.9c-2.2,0-4,1.8-4,4v27.3c0,2.2,1.8,4,4,4h47.5c2.2,0,4-1.8,4-4V6.9c0-2.2-1.8-4-4-4C54.5,2.9,7,2.9,7,2.9z"/>
</g>
<g>
	<g class="st3">
		<path d="M13.7,20.4c0,0.7-0.2,1.3-0.5,1.8c-0.3,0.5-0.7,1-1.2,1.3c-0.4,0.2-0.8,0.4-1.2,0.5s-0.9,0.1-1.5,0.1H6.7v-7.4h2.7
			c0.6,0,1.1,0.1,1.6,0.2c0.4,0.1,0.8,0.2,1.1,0.4c0.5,0.3,0.9,0.7,1.2,1.3C13.5,19.1,13.7,19.8,13.7,20.4z M11.7,20.4
			c0-0.5-0.1-0.9-0.3-1.2c-0.2-0.3-0.5-0.6-0.8-0.8c-0.2-0.1-0.4-0.2-0.6-0.2s-0.5-0.1-0.9-0.1H8.6v4.6h0.5c0.5,0,0.8,0,1-0.1
			c0.2,0,0.4-0.1,0.6-0.2c0.3-0.2,0.6-0.5,0.8-0.8C11.6,21.4,11.7,20.9,11.7,20.4z"/>
		<path d="M16.9,17.8H15v-1.4h1.9V17.8z M16.8,24.1H15v-5.6h1.8V24.1z"/>
		<path d="M23.3,22.4c0,0.6-0.3,1-0.8,1.4s-1.2,0.5-2.1,0.5c-0.5,0-0.9,0-1.3-0.1s-0.7-0.2-1-0.3v-1.5h0.2c0.1,0.1,0.2,0.1,0.3,0.2
			c0.1,0.1,0.3,0.2,0.5,0.2c0.2,0.1,0.4,0.1,0.6,0.2s0.5,0.1,0.8,0.1c0.4,0,0.6,0,0.8-0.1c0.2-0.1,0.3-0.2,0.3-0.3
			c0-0.1,0-0.2-0.1-0.3c-0.1-0.1-0.3-0.1-0.6-0.2c-0.1,0-0.3-0.1-0.5-0.1S20,22,19.8,22c-0.5-0.1-0.9-0.3-1.1-0.6
			c-0.2-0.3-0.4-0.6-0.4-1c0-0.5,0.3-1,0.8-1.3c0.5-0.4,1.2-0.5,2.1-0.5c0.4,0,0.8,0,1.2,0.1c0.4,0.1,0.7,0.2,0.9,0.3v1.4h-0.2
			c-0.3-0.2-0.6-0.3-0.9-0.4c-0.5-0.3-0.9-0.3-1.2-0.3c-0.3,0-0.5,0-0.7,0.1S20,20,20,20c0,0.1,0,0.2,0.1,0.3
			c0.1,0.1,0.3,0.1,0.6,0.2c0.2,0,0.4,0.1,0.6,0.1s0.4,0.1,0.6,0.1c0.5,0.1,0.8,0.3,1,0.6C23.2,21.6,23.3,22,23.3,22.4z"/>
		<path d="M27.4,24.4c-0.5,0-0.9-0.1-1.3-0.2s-0.8-0.3-1-0.5c-0.3-0.2-0.5-0.5-0.7-0.9s-0.2-0.8-0.2-1.3s0.1-1,0.3-1.3
			c0.2-0.4,0.4-0.7,0.7-0.9c0.3-0.2,0.6-0.4,1-0.5s0.8-0.2,1.2-0.2c0.4,0,0.7,0,1.1,0.1c0.3,0.1,0.6,0.2,0.9,0.3v1.5h-0.3
			c-0.1-0.1-0.2-0.1-0.3-0.2c-0.1-0.1-0.2-0.2-0.4-0.2c-0.1-0.1-0.3-0.1-0.4-0.2c-0.2,0-0.3-0.1-0.6-0.1c-0.5,0-0.8,0.2-1.1,0.5
			c-0.3,0.3-0.4,0.7-0.4,1.2s0.1,0.9,0.4,1.2c0.3,0.3,0.6,0.4,1.1,0.4c0.2,0,0.4,0,0.6-0.1s0.3-0.1,0.4-0.2s0.2-0.1,0.3-0.2
			c0.1-0.1,0.2-0.1,0.2-0.2h0.3v1.5c-0.3,0.1-0.6,0.2-0.9,0.3C28.1,24.3,27.8,24.4,27.4,24.4z"/>
	</g>
	<g class="st3">
		<path d="M42.9,18.5l-2.1,5.6h-2l-2.1-5.6h1.9l1.3,3.8l1.3-3.8H42.9z"/>
		<path d="M49.4,21.8h-4.1c0,0.4,0.2,0.8,0.5,1s0.8,0.3,1.4,0.3c0.4,0,0.7-0.1,1.1-0.2c0.4-0.1,0.6-0.3,0.8-0.4h0.2v1.4
			c-0.4,0.2-0.8,0.3-1.1,0.4s-0.8,0.1-1.2,0.1c-1.1,0-2-0.3-2.6-0.8s-0.9-1.2-0.9-2.1s0.3-1.6,0.8-2.2c0.6-0.5,1.3-0.8,2.3-0.8
			c0.9,0,1.6,0.2,2,0.7c0.5,0.5,0.7,1.1,0.7,2L49.4,21.8L49.4,21.8z M47.6,20.6c0-0.4-0.1-0.7-0.3-0.8c-0.2-0.2-0.4-0.3-0.8-0.3
			c-0.3,0-0.6,0.1-0.8,0.3c-0.2,0.2-0.3,0.5-0.4,0.9h2.3V20.6z"/>
		<path d="M54.7,20.3h-0.2c-0.1,0-0.2,0-0.4-0.1c-0.2,0-0.3,0-0.4,0c-0.3,0-0.5,0-0.7,0s-0.4,0.1-0.6,0.2v3.7h-1.7v-5.6h1.8v0.8
			c0.4-0.3,0.7-0.6,1-0.7s0.6-0.2,0.8-0.2c0.1,0,0.1,0,0.2,0c0.1,0,0.1,0,0.2,0V20.3z"/>
	</g>
</g>
<g id="layer1_1_" transform="matrix(0.94947156,0,0,0.949483,496.94722,38.627248)">
	<path id="path3194_1_" class="st1" d="M-484.7-18.1c0,2-1.6,3.6-3.6,3.6s-3.6-1.6-3.6-3.6s1.6-3.6,3.6-3.6
		C-486.3-21.7-484.7-20.1-484.7-18.1z"/>
</g>
</svg>
