<?xml version="1.0" encoding="utf-8"?>
<!-- Generator: Adobe Illustrator 21.0.0, SVG Export Plug-In . SVG Version: 6.00 Build 0)  -->
<svg version="1.1" id="Capa_1" xmlns="http://www.w3.org/2000/svg" xmlns:xlink="http://www.w3.org/1999/xlink" x="0px" y="0px"
	 viewBox="0 0 61.5 41.3" style="enable-background:new 0 0 61.5 41.3;" xml:space="preserve">
<style type="text/css">
	.st0{fill:#00ADEF;}
	.st1{fill:#EDEDED;}
	.st2{fill:#FFFFFF;}
</style>
<path class="st0" d="M53.4,40.5H8.6c-3.6,0-6.6-3-6.6-6.6V8.1c0-3.6,3-6.6,6.6-6.6h44.8c3.6,0,6.6,3,6.6,6.6v25.8
	C60,37.5,57,40.5,53.4,40.5z"/>
<g>
	<path class="st1" d="M54.7,41.7H7.3c-3.9,0-7-3.1-7-7V7.3c0-3.9,3.1-7,7-7h47.5c3.9,0,7,3.1,7,7v27.3
		C61.8,38.5,58.6,41.7,54.7,41.7z M7.3,3.3c-2.2,0-4,1.8-4,4v27.3c0,2.2,1.8,4,4,4h47.5c2.2,0,4-1.8,4-4V7.3c0-2.2-1.8-4-4-4H7.3z"
		/>
</g>
<g>
	<path class="st2" d="M27.2,22.7L23.9,15h-4v10.9L15.1,15h-3.3L7,26.4h2.9l1-2.5H16l1,2.5h5.5V18l3.6,8.4h2.4l3.6-8.2v8.2h2.6V15.2
		h-4l-3.3,7.7L27.2,22.7z M13.4,21.4h-1.7l1.7-4l0,0l1.7,3.7L13.4,21.4z"/>
	<path class="st2" d="M51.2,20.7l1.9-2.2l2.9-3.2h-3.3l-3.1,3.5l-3.1-3.5H36.2v11.1h10.2l3.1-3.7l3.1,3.7H56l-2.9-3.5L51.2,20.7z
		 M44.8,24.1h-6v-2.2h6v-2.2h-6v-2h6l3.1,3L44.8,24.1z"/>
</g>
</svg>
