<?xml version="1.0" encoding="utf-8"?>
<!-- Generator: Adobe Illustrator 21.0.0, SVG Export Plug-In . SVG Version: 6.00 Build 0)  -->
<svg version="1.1" id="Capa_1" xmlns="http://www.w3.org/2000/svg" xmlns:xlink="http://www.w3.org/1999/xlink" x="0px" y="0px"
	 viewBox="0 0 61.5 41.3" style="enable-background:new 0 0 61.5 41.3;" xml:space="preserve">
<style type="text/css">
	.st0{fill:#FFFFFF;}
	.st1{fill:#EDEDED;}
	.st2{fill:#00589F;}
	.st3{fill:#F9A51A;}
</style>
<g>
	<path class="st0" d="M53.1,40.1H8.4c-3.6,0-6.6-3-6.6-6.6V7.8c0-3.6,3-6.6,6.6-6.6h44.8c3.6,0,6.6,3,6.6,6.6v25.8
		C59.8,37.2,56.8,40.1,53.1,40.1z"/>
</g>
<path class="st1" d="M54.5,41.3H7c-3.9,0-7-3.1-7-7V7c0-3.9,3.1-7,7-7h47.5c3.9,0,7,3.1,7,7v27.3C61.5,38.2,58.4,41.3,54.5,41.3z
	 M7,3C4.8,3,3,4.8,3,7v27.3c0,2.2,1.8,4,4,4h47.5c2.2,0,4-1.8,4-4V7c0-2.2-1.8-4-4-4H7z"/>
<g>
	<polygon class="st2" points="23.9,27.9 26.2,13.4 30,13.4 27.7,27.9 	"/>
	<path class="st2" d="M37.9,13.4c-3.8,0-6.4,1.9-6.4,4.6s1.9,3.1,3.3,3.9c1.4,0.7,1.9,1.2,1.9,1.7c0,0.5-1.2,1.5-2.1,1.5
		c-1.2,0-2.4-0.2-3.6-0.7h-0.5L30,27.4c1.4,0.4,2.8,0.6,4.3,0.5c4,0,6.4-1.9,6.6-4.8s-0.9-2.9-3.1-3.9c-2.1-1-2.1-1-2.1-1.7
		c0-0.7,0.7-1.2,2.1-1.2l2.8,0.5h0.2l0.5-3.1"/>
	<path class="st2" d="M50.9,13.4h-2.8c-0.9,0-1.6,0.6-1.9,1.5l-5.7,13.1h4l0.7-2.2H50l0.5,2.2H54L50.9,13.4 M46.2,23.1
		c0.6-1.3,1.9-5.6,1.9-5.6l0.9,5.6H46.2z"/>
	<path class="st2" d="M20.8,13.4L17,23.1l-0.5-1.9c-1-2.5-2.8-4.6-5.2-5.8l3.6,12.6h3.8l6.2-14.5h-4.7"/>
	<path class="st3" d="M13,13.4H7.5v0.5c4,0.8,7.4,3.7,9,7.5l-1.2-6.8c-0.2-0.7-0.9-1.2-1.7-1.2"/>
</g>
</svg>
