<?xml version="1.0" encoding="utf-8"?>
<!-- Generator: Adobe Illustrator 21.0.0, SVG Export Plug-In . SVG Version: 6.00 Build 0)  -->
<svg version="1.1" id="Capa_1" xmlns="http://www.w3.org/2000/svg" xmlns:xlink="http://www.w3.org/1999/xlink" x="0px" y="0px"
	 viewBox="0 0 61.5 41.3" style="enable-background:new 0 0 61.5 41.3;" xml:space="preserve">
<style type="text/css">
	.st0{fill:#FFFFFF;}
	.st1{fill:#FF0016;}
	.st2{fill:#FFA916;}
	.st3{fill:#EDEDED;}
</style>
<g>
	<path class="st0" d="M53.1,40.2H8.4c-3.6,0-6.6-3-6.6-6.6V7.8c0-3.6,3-6.6,6.6-6.6h44.8c3.6,0,6.6,3,6.6,6.6v25.8
		C59.8,37.2,56.8,40.2,53.1,40.2z"/>
</g>
<g>
	<circle class="st1" cx="22.2" cy="20.7" r="11.3"/>
	<path class="st2" d="M39.4,9.4c-3.3,0-6.4,1.4-8.6,3.8L29.4,15h2.5c0.4,0.7,0.7,1.5,0.9,2.3h-4.3c-0.2,0.7-0.4,1.5-0.5,2.3h5.4
		c0,0.4,0,0.8,0,1.1c0,0.4,0,0.8,0,1.1h-5.4c0.1,0.8,0.2,1.5,0.5,2.3h4.5c-0.2,0.8-0.5,1.5-0.9,2.3h-2.7l1.4,1.8
		c4.1,4.7,11.2,5.1,15.9,1s5.1-11.2,1-15.9C45.6,10.8,42.6,9.4,39.4,9.4z"/>
</g>
<g>
	<path class="st3" d="M54.5,41.3H7c-3.9,0-7-3.1-7-7V7c0-3.9,3.1-7,7-7h47.5c3.9,0,7,3.1,7,7v27.3C61.5,38.2,58.4,41.3,54.5,41.3z
		 M7,3C4.8,3,3,4.8,3,7v27.3c0,2.2,1.8,4,4,4h47.5c2.2,0,4-1.8,4-4V7c0-2.2-1.8-4-4-4H7z"/>
</g>
</svg>
