<?xml version="1.0" encoding="utf-8"?>
<!-- Generator: Adobe Illustrator 21.0.0, SVG Export Plug-In . SVG Version: 6.00 Build 0)  -->
<svg version="1.1" id="Capa_1" xmlns="http://www.w3.org/2000/svg" xmlns:xlink="http://www.w3.org/1999/xlink" x="0px" y="0px"
	 viewBox="0 0 62 29.1" style="enable-background:new 0 0 62 29.1;" xml:space="preserve">
<style type="text/css">
	.st0{clip-path:url(#SVGID_2_);fill:#FFFFFF;}
	.st1{clip-path:url(#SVGID_2_);fill:#FCFDFC;}
	.st2{clip-path:url(#SVGID_2_);fill:#FAFAFA;}
	.st3{clip-path:url(#SVGID_2_);fill:#F7F8F7;}
	.st4{clip-path:url(#SVGID_2_);fill:#F4F5F5;}
	.st5{clip-path:url(#SVGID_2_);fill:#F2F3F2;}
	.st6{clip-path:url(#SVGID_2_);fill:#EFF0F0;}
	.st7{clip-path:url(#SVGID_2_);fill:#ECEEED;}
	.st8{clip-path:url(#SVGID_2_);fill:#EAEBEB;}
	.st9{clip-path:url(#SVGID_2_);fill:#E7E9E8;}
	.st10{clip-path:url(#SVGID_2_);fill:#E4E6E6;}
	.st11{clip-path:url(#SVGID_2_);fill:#E2E4E3;}
	.st12{clip-path:url(#SVGID_2_);fill:#DFE1E1;}
	.st13{clip-path:url(#SVGID_2_);fill:#DDDFDE;}
	.st14{clip-path:url(#SVGID_2_);fill:#DADCDC;}
	.st15{clip-path:url(#SVGID_2_);fill:#D7DAD9;}
	.st16{clip-path:url(#SVGID_2_);fill:#D5D7D7;}
	.st17{clip-path:url(#SVGID_2_);fill:#D2D5D4;}
	.st18{clip-path:url(#SVGID_2_);fill:#CFD2D2;}
	.st19{clip-path:url(#SVGID_2_);fill:#CDD0CF;}
	.st20{clip-path:url(#SVGID_2_);fill:#CACDCD;}
	.st21{clip-path:url(#SVGID_2_);fill:#C7CBCA;}
	.st22{fill-rule:evenodd;clip-rule:evenodd;fill:#EB6619;}
	.st23{fill-rule:evenodd;clip-rule:evenodd;fill:#69696B;}
	.st24{fill-rule:evenodd;clip-rule:evenodd;fill:#FF5B0F;}
	.st25{fill-rule:evenodd;clip-rule:evenodd;fill:#044B9D;}
	.st26{fill:#C2C6C5;}
	.st27{fill:#FF5B0F;}
	.st28{fill:#F98D00;}
	.st29{fill:#044B9D;}
	.st30{fill:#FFFFFF;}
	.st31{fill:#485150;}
	.st32{fill:#D4D8D9;}
	.st33{opacity:0.6;fill:#D4D8D9;}
	.st34{clip-path:url(#SVGID_4_);fill:#8D989C;}
	.st35{clip-path:url(#SVGID_4_);fill:#909A9E;}
	.st36{clip-path:url(#SVGID_4_);fill:#929DA1;}
	.st37{clip-path:url(#SVGID_4_);fill:#959FA3;}
	.st38{clip-path:url(#SVGID_4_);fill:#98A1A5;}
	.st39{clip-path:url(#SVGID_4_);fill:#9AA4A7;}
	.st40{clip-path:url(#SVGID_4_);fill:#9DA6AA;}
	.st41{clip-path:url(#SVGID_4_);fill:#9FA9AC;}
	.st42{clip-path:url(#SVGID_4_);fill:#A2ABAE;}
	.st43{clip-path:url(#SVGID_4_);fill:#A5ADB0;}
	.st44{clip-path:url(#SVGID_4_);fill:#A7B0B3;}
	.st45{clip-path:url(#SVGID_4_);fill:#AAB2B5;}
	.st46{clip-path:url(#SVGID_4_);fill:#ADB4B7;}
	.st47{clip-path:url(#SVGID_4_);fill:#AFB7B9;}
	.st48{clip-path:url(#SVGID_4_);fill:#B2B9BC;}
	.st49{clip-path:url(#SVGID_4_);fill:#B4BCBE;}
	.st50{clip-path:url(#SVGID_4_);fill:#B7BEC0;}
	.st51{clip-path:url(#SVGID_4_);fill:#BAC0C2;}
	.st52{clip-path:url(#SVGID_4_);fill:#BCC3C5;}
	.st53{clip-path:url(#SVGID_4_);fill:#BFC5C7;}
	.st54{clip-path:url(#SVGID_4_);fill:#C2C7C9;}
	.st55{clip-path:url(#SVGID_4_);fill:#C4CACB;}
	.st56{clip-path:url(#SVGID_4_);fill:#C7CCCE;}
	.st57{clip-path:url(#SVGID_4_);fill:#C9CFD0;}
	.st58{clip-path:url(#SVGID_4_);fill:#CCD1D2;}
	.st59{clip-path:url(#SVGID_4_);fill:#CFD3D4;}
	.st60{clip-path:url(#SVGID_4_);fill:#D1D6D7;}
	.st61{clip-path:url(#SVGID_4_);fill:#D4D8D9;}
	.st62{clip-path:url(#SVGID_4_);fill:#D3D7D8;}
	.st63{clip-path:url(#SVGID_4_);fill:#D2D6D7;}
	.st64{clip-path:url(#SVGID_4_);fill:#D0D5D6;}
	.st65{clip-path:url(#SVGID_4_);fill:#CFD3D5;}
	.st66{clip-path:url(#SVGID_4_);fill:#CDD2D3;}
	.st67{clip-path:url(#SVGID_4_);fill:#CBD0D2;}
	.st68{clip-path:url(#SVGID_4_);fill:#C7CDCE;}
	.st69{clip-path:url(#SVGID_4_);fill:#C5CBCC;}
	.st70{clip-path:url(#SVGID_4_);fill:#C3C8CA;}
	.st71{clip-path:url(#SVGID_4_);fill:#C0C6C8;}
	.st72{clip-path:url(#SVGID_4_);fill:#BDC4C6;}
	.st73{clip-path:url(#SVGID_4_);fill:#BBC1C3;}
	.st74{clip-path:url(#SVGID_4_);fill:#B8BFC1;}
	.st75{clip-path:url(#SVGID_4_);fill:#B5BCBE;}
	.st76{clip-path:url(#SVGID_4_);fill:#B2B9BB;}
	.st77{clip-path:url(#SVGID_4_);fill:#AEB6B9;}
	.st78{clip-path:url(#SVGID_4_);fill:#ABB3B6;}
	.st79{clip-path:url(#SVGID_4_);fill:#A8B0B3;}
	.st80{clip-path:url(#SVGID_4_);fill:#A4ADB0;}
	.st81{clip-path:url(#SVGID_4_);fill:#A1AAAD;}
	.st82{clip-path:url(#SVGID_4_);fill:#99A3A6;}
	.st83{clip-path:url(#SVGID_4_);fill:#919CA0;}
	.st84{clip-path:url(#SVGID_6_);fill:#FFCB04;}
	.st85{clip-path:url(#SVGID_6_);fill:#FFC804;}
	.st86{clip-path:url(#SVGID_6_);fill:#FFC604;}
	.st87{clip-path:url(#SVGID_6_);fill:#FEC303;}
	.st88{clip-path:url(#SVGID_6_);fill:#FEC003;}
	.st89{clip-path:url(#SVGID_6_);fill:#FEBE03;}
	.st90{clip-path:url(#SVGID_6_);fill:#FEBB03;}
	.st91{clip-path:url(#SVGID_6_);fill:#FDB803;}
	.st92{clip-path:url(#SVGID_6_);fill:#FDB603;}
	.st93{clip-path:url(#SVGID_6_);fill:#FDB302;}
	.st94{clip-path:url(#SVGID_6_);fill:#FDB102;}
	.st95{clip-path:url(#SVGID_6_);fill:#FCAE02;}
	.st96{clip-path:url(#SVGID_6_);fill:#FCAB02;}
	.st97{clip-path:url(#SVGID_6_);fill:#FCA902;}
	.st98{clip-path:url(#SVGID_6_);fill:#FCA602;}
	.st99{clip-path:url(#SVGID_6_);fill:#FBA301;}
	.st100{clip-path:url(#SVGID_6_);fill:#FBA101;}
	.st101{clip-path:url(#SVGID_6_);fill:#FB9E01;}
	.st102{clip-path:url(#SVGID_6_);fill:#F89C01;}
	.st103{clip-path:url(#SVGID_6_);fill:#F69902;}
	.st104{clip-path:url(#SVGID_6_);fill:#F39702;}
	.st105{clip-path:url(#SVGID_6_);fill:#F09403;}
	.st106{clip-path:url(#SVGID_6_);fill:#EE9203;}
	.st107{clip-path:url(#SVGID_6_);fill:#EB9004;}
	.st108{clip-path:url(#SVGID_6_);fill:#E88D04;}
	.st109{clip-path:url(#SVGID_6_);fill:#E58B05;}
	.st110{clip-path:url(#SVGID_6_);fill:#E38805;}
	.st111{clip-path:url(#SVGID_6_);fill:#E08605;}
	.st112{clip-path:url(#SVGID_6_);fill:#DD8406;}
	.st113{clip-path:url(#SVGID_6_);fill:#DB8106;}
	.st114{clip-path:url(#SVGID_6_);fill:#D87F07;}
	.st115{clip-path:url(#SVGID_6_);fill:#D57C07;}
	.st116{clip-path:url(#SVGID_6_);fill:#D37A08;}
	.st117{clip-path:url(#SVGID_6_);fill:#D07808;}
	.st118{clip-path:url(#SVGID_6_);fill:#CE7509;}
	.st119{clip-path:url(#SVGID_6_);fill:#CB7309;}
</style>
<g>
	<g>
		<g>
			<defs>
				<path id="SVGID_1_" d="M2.8,0.4c-1.3,0-2.4,1.1-2.4,2.4v23.5c0,1.3,1.1,2.4,2.4,2.4h56.4c1.3,0,2.4-1.1,2.4-2.4V2.8
					c0-1.3-1.1-2.4-2.4-2.4H2.8z"/>
			</defs>
			<clipPath id="SVGID_2_">
				<use xlink:href="#SVGID_1_"  style="overflow:visible;"/>
			</clipPath>
			<polygon class="st0" points="59.9,28.6 27.3,0.4 61.6,0.4 61.6,28.6 			"/>
			<polygon class="st0" points="57.1,28.6 24.5,0.4 27.3,0.4 59.9,28.6 			"/>
			<polygon class="st1" points="54.3,28.6 21.7,0.4 24.5,0.4 57.1,28.6 			"/>
			<polygon class="st2" points="51.5,28.6 18.9,0.4 21.7,0.4 54.3,28.6 			"/>
			<polygon class="st3" points="48.7,28.6 16.1,0.4 18.9,0.4 51.5,28.6 			"/>
			<polygon class="st4" points="45.9,28.6 13.3,0.4 16.1,0.4 48.7,28.6 			"/>
			<polygon class="st5" points="43.1,28.6 10.5,0.4 13.3,0.4 45.9,28.6 			"/>
			<polygon class="st6" points="40.3,28.6 7.7,0.4 10.5,0.4 43.1,28.6 			"/>
			<polygon class="st7" points="37.5,28.6 4.9,0.4 7.7,0.4 40.3,28.6 			"/>
			<polygon class="st8" points="34.7,28.6 2.1,0.4 4.9,0.4 37.5,28.6 			"/>
			<polygon class="st9" points="32,28.6 0.4,1.4 0.4,0.4 2.1,0.4 34.7,28.6 			"/>
			<polygon class="st10" points="29.2,28.6 0.4,3.8 0.4,1.4 32,28.6 			"/>
			<polygon class="st11" points="26.4,28.6 0.4,6.2 0.4,3.8 29.2,28.6 			"/>
			<polygon class="st12" points="23.6,28.6 0.4,8.6 0.4,6.2 26.4,28.6 			"/>
			<polygon class="st13" points="20.8,28.6 0.4,11 0.4,8.6 23.6,28.6 			"/>
			<polygon class="st14" points="18,28.6 0.4,13.5 0.4,11 20.8,28.6 			"/>
			<polygon class="st15" points="15.2,28.6 0.4,15.9 0.4,13.5 18,28.6 			"/>
			<polygon class="st16" points="12.4,28.6 0.4,18.3 0.4,15.9 15.2,28.6 			"/>
			<polygon class="st17" points="9.6,28.6 0.4,20.7 0.4,18.3 12.4,28.6 			"/>
			<polygon class="st18" points="6.8,28.6 0.4,23.1 0.4,20.7 9.6,28.6 			"/>
			<polygon class="st19" points="4,28.6 0.4,25.6 0.4,23.1 6.8,28.6 			"/>
			<polygon class="st20" points="1.2,28.6 0.4,28 0.4,25.6 4,28.6 			"/>
			<polygon class="st21" points="0.4,28 1.2,28.6 0.4,28.6 			"/>
		</g>
	</g>
	<path class="st22" d="M8.4,2.9c-2.2,0-4,1.8-4,4c0,0.3,0,0.5,0.1,0.7C4.5,8.1,4.8,8.2,5,8.3c0.1,0,0.2,0.1,0.2,0.1
		c0.4,0,0.9-0.1,1.3-0.3c0.6-0.4,1-0.9,1.2-1.6C7,6.6,6.3,6.7,5.7,6.8l0-1.3l4.5-0.3l0,4.2L8.8,9.6c0,0,0,0,0,0c0,0,0-0.1,0-0.1
		C8.9,9.1,8.9,8.7,9,8.4C9,8.1,9,7.9,9,7.7C8.8,7.9,8.6,8.2,8.4,8.4C8.2,8.5,8,8.7,7.8,8.9C7.6,8.9,7.5,9,7.3,9.1
		C7,9.3,6.7,9.4,6.4,9.4C6.1,9.5,5.7,9.5,5.3,9.6c0.7,0.9,1.8,1.4,3,1.4c2.2,0,4-1.8,4-4C12.4,4.7,10.6,2.9,8.4,2.9L8.4,2.9z"/>
	<g>
		<g>
			<path class="st23" d="M16.2,5.9c-0.1-0.4-0.5-0.6-0.9-0.6c-0.9,0-1.3,0.8-1.2,1.5c0,1,0.3,1.5,1.4,1.5c0.3,0,0.5,0,0.7-0.1V7.2
				h-0.9V6.7h1.4v1.9c-0.4,0.1-0.9,0.2-1.3,0.2c-0.5,0-1-0.1-1.4-0.4c-0.4-0.4-0.6-1-0.6-1.5c0-0.4,0.1-0.8,0.3-1.2
				c0.3-0.6,0.9-0.8,1.5-0.8c0.6,0,1.3,0.3,1.4,1H16.2L16.2,5.9z"/>
			<path class="st23" d="M17.9,7.5c0,0.5,0.2,0.9,0.7,0.9c0.4,0,0.6-0.2,0.6-0.5h0.5c-0.1,0.6-0.5,0.9-1.2,0.9
				c-0.8,0-1.2-0.6-1.2-1.4c0-0.8,0.4-1.4,1.2-1.4c0.8,0,1.1,0.5,1.1,1.2v0.2H17.9L17.9,7.5z M19.2,7.1c0-0.4-0.2-0.8-0.7-0.8
				c-0.4,0-0.7,0.3-0.7,0.8H19.2L19.2,7.1z"/>
			<path class="st23" d="M22.6,7.4c0,0.8-0.4,1.4-1.3,1.4c-0.9,0-1.3-0.6-1.3-1.4C20,6.6,20.5,6,21.3,6C22.2,6,22.6,6.6,22.6,7.4
				L22.6,7.4z M21.3,8.4c0.6,0,0.8-0.5,0.8-1c0-0.6-0.2-1-0.8-1c-0.6,0-0.8,0.5-0.8,1C20.6,8,20.8,8.4,21.3,8.4L21.3,8.4z"/>
			<polygon class="st23" points="23.2,5.7 22,5.7 22,4.9 25.4,4.9 25.4,5.7 24.2,5.7 24.2,8.7 23.2,8.7 23.2,5.7 			"/>
			<path class="st23" d="M26,6.6L26,6.6C26.1,6.1,26.4,6,26.8,6v0.8c-0.1,0-0.1,0-0.2,0c-0.5,0-0.7,0.3-0.7,0.8v1h-1V6.8
				c0-0.2,0-0.4,0-0.7h1L26,6.6L26,6.6z"/>
			<path class="st23" d="M29.1,8.4c-0.2,0.3-0.5,0.4-0.8,0.4c-0.6,0-1-0.4-1-0.9V6.1h1v1.5c0,0.3,0.1,0.5,0.4,0.5
				c0.5,0,0.4-0.5,0.4-0.6V6.1h1V8c0,0.2,0,0.4,0,0.7h-1L29.1,8.4L29.1,8.4z"/>
			<path class="st23" d="M32.1,6.9c0-0.1,0-0.2-0.1-0.2c-0.1-0.1-0.1-0.1-0.3-0.1c-0.1,0-0.2,0.1-0.2,0.2c0,0.2,0.4,0.2,1,0.4
				c0.3,0.1,0.5,0.3,0.5,0.7c0,0.7-0.7,0.9-1.2,0.9c-0.6,0-1.3-0.1-1.3-0.9h0.9c0,0.1,0,0.2,0.1,0.2c0.1,0.1,0.1,0.1,0.2,0.1
				c0.2,0,0.3-0.1,0.3-0.2c0-0.5-1.5-0.2-1.5-1.1c0-0.6,0.7-0.8,1.2-0.8c0.6,0,1.2,0.2,1.2,0.9H32.1L32.1,6.9z"/>
			<path class="st23" d="M33.9,6.1V5.7l1-0.4v0.8h0.6v0.6h-0.6v1c0,0.1,0,0.4,0.2,0.4c0.1,0,0.3,0,0.4,0v0.6c-0.2,0-0.4,0.1-0.5,0.1
				c-0.7,0-1.1-0.1-1-0.9V6.7h-0.5V6.1H33.9L33.9,6.1z"/>
			<path class="st23" d="M36.6,6.4c0,0.1,0,0.2-0.1,0.3c-0.1,0.1-0.2,0.1-0.3,0.1c-0.1,0-0.2,0-0.3-0.1c-0.1-0.1-0.1-0.2-0.1-0.3
				c0-0.1,0-0.2,0.1-0.3C36.1,6,36.2,6,36.3,6c0.1,0,0.2,0,0.3,0.1C36.6,6.2,36.6,6.3,36.6,6.4L36.6,6.4z M36.6,6.4
				c0-0.1,0-0.1-0.1-0.2c-0.1-0.1-0.1-0.1-0.2-0.1c-0.1,0-0.1,0-0.2,0.1C36,6.2,36,6.3,36,6.4c0,0.1,0,0.1,0.1,0.2
				c0.1,0.1,0.1,0.1,0.2,0.1c0.1,0,0.1,0,0.2-0.1C36.5,6.5,36.6,6.4,36.6,6.4L36.6,6.4z M36.3,6.5C36.3,6.5,36.3,6.5,36.3,6.5
				c0-0.1,0-0.1,0-0.1c0,0,0,0,0,0c0,0,0,0,0,0C36.2,6.4,36.2,6.5,36.3,6.5c-0.1,0-0.1,0-0.1,0c0,0,0,0,0,0V6.2c0.1,0,0.1,0,0.1,0
				c0,0,0.1,0,0.1,0c0,0,0,0,0,0.1c0,0,0,0,0,0c0,0,0,0,0,0c0,0,0,0,0,0.1c0,0,0,0,0,0c0,0,0,0,0.1,0.1c0,0,0,0,0,0.1c0,0,0,0,0,0.1
				H36.3L36.3,6.5z M36.3,6.3C36.3,6.3,36.3,6.3,36.3,6.3C36.3,6.3,36.3,6.3,36.3,6.3C36.3,6.3,36.3,6.2,36.3,6.3
				C36.3,6.2,36.3,6.2,36.3,6.3C36.3,6.2,36.3,6.2,36.3,6.3C36.3,6.2,36.2,6.2,36.3,6.3L36.3,6.3C36.3,6.3,36.3,6.3,36.3,6.3
				C36.3,6.3,36.3,6.3,36.3,6.3C36.3,6.3,36.3,6.3,36.3,6.3L36.3,6.3z"/>
		</g>
	</g>
	<path class="st24" d="M8.4,2.9c-2.2,0-4,1.8-4,4c0,0.3,0,0.5,0.1,0.7C4.6,8.1,4.8,8.2,5,8.3c0.1,0,0.2,0.1,0.2,0.1
		c0.4,0,0.9-0.1,1.3-0.3c0.6-0.4,1-0.9,1.2-1.6C7,6.6,6.4,6.7,5.7,6.8l0-1.3l4.5-0.3l0,4.2L8.8,9.6c0,0,0,0,0,0c0,0,0-0.1,0-0.1
		C8.9,9.1,8.9,8.7,9,8.4C9,8.1,9,7.9,9,7.7C8.9,7.9,8.7,8.2,8.4,8.4C8.2,8.5,8,8.7,7.8,8.9C7.6,8.9,7.5,9,7.4,9.1
		C7,9.3,6.7,9.4,6.4,9.4C6.2,9.5,5.7,9.5,5.4,9.6c0.7,0.9,1.8,1.4,3,1.4c2.2,0,4-1.8,4-4C12.4,4.7,10.6,2.9,8.4,2.9L8.4,2.9z"/>
	<path class="st25" d="M3,8.5C2.2,6.8,3.2,4.3,5.3,2.9C6.4,2.1,7.6,1.8,8.6,2V0.2H2.8c-1.4,0-2.6,1.1-2.6,2.6v5.9h2.9
		C3,8.6,3,8.6,3,8.5z"/>
	<g>
		<path class="st26" d="M59.2,29.1H2.8c-1.5,0-2.8-1.2-2.8-2.8V2.8C0,1.2,1.2,0,2.8,0h56.4C60.8,0,62,1.2,62,2.8v23.5
			C62,27.8,60.8,29.1,59.2,29.1z M2.8,0.4c-1.3,0-2.4,1.1-2.4,2.4v23.5c0,1.3,1.1,2.4,2.4,2.4h56.4c1.3,0,2.4-1.1,2.4-2.4V2.8
			c0-1.3-1.1-2.4-2.4-2.4H2.8z"/>
	</g>
	<rect x="0.3" y="14" class="st27" width="37.8" height="0.4"/>
	<rect x="0.3" y="13.2" class="st28" width="37.8" height="0.7"/>
	<g>
		<path class="st29" d="M5,17.7c0-0.5-0.2-0.8-0.7-0.8c-0.7,0-0.8,0.5-0.8,0.8c0,0.3,0.1,0.5,0.4,0.6l0.7,0.3c0.9,0.3,1,0.6,1,1.2
			c0,0.9-0.5,1.4-1.4,1.4c-0.5,0-1-0.1-1.3-0.7c-0.1-0.2-0.1-0.6-0.1-0.8h0.5c0,0.7,0.1,1.1,0.9,1.1c0.5,0,0.9-0.3,0.9-0.8
			c0-0.7-0.3-0.7-0.8-0.9c-0.3-0.1-0.7-0.2-0.9-0.4c-0.4-0.2-0.5-0.6-0.5-1c0-0.8,0.5-1.3,1.3-1.3c0.8,0,1.4,0.4,1.3,1.3H5z"/>
		<path class="st29" d="M7.7,21.1v-4.6H10v0.5H8.2v1.5h1.7v0.5H8.2v1.7H10v0.5H7.7z"/>
		<path class="st29" d="M14.1,17.9c0-0.5-0.2-1-0.8-1c-0.9,0-0.9,1.3-0.9,1.9c0,0.6,0,2,0.9,2c0.6,0,0.7-0.5,0.8-1
			c0-0.1,0-0.2,0-0.3h0.5c0,0.1,0,0.2,0,0.3c0,0.4,0,0.7-0.3,1c-0.2,0.3-0.6,0.5-1,0.5c-1.4,0-1.5-1.4-1.5-2.5c0-1,0.2-2.3,1.5-2.3
			c0.9,0,1.3,0.7,1.3,1.5H14.1z"/>
		<path class="st29" d="M16.7,16.5h0.5v3.3c0,0.4,0.1,0.9,0.9,0.9s0.9-0.6,0.9-0.9v-3.3h0.5V20c0,0.8-0.5,1.2-1.4,1.2
			s-1.4-0.4-1.4-1.2V16.5z"/>
		<path class="st29" d="M22.2,21.1h-0.5v-4.6h1.2c1,0,1.6,0.3,1.6,1.3c0,0.5-0.4,0.9-0.9,1v0c0.6,0.1,0.7,0.2,0.8,0.9
			c0,0.3,0,0.7,0.1,1c0,0.1,0.1,0.3,0.2,0.3v0.1H24c-0.1-0.3-0.2-0.9-0.2-1.2c0-0.5-0.2-0.9-0.8-0.9h-0.9V21.1z M22.2,18.6H23
			c0.2,0,0.9,0,0.9-0.8c0-0.8-0.6-0.8-1-0.8h-0.7V18.6z"/>
		<path class="st29" d="M26.6,21.1v-4.6h2.3v0.5h-1.8v1.5h1.7v0.5h-1.7v1.7h1.8v0.5H26.6z"/>
		<path class="st29" d="M31,21.1v-4.6h1.3c1.4,0,1.6,1.2,1.6,2.3c0,1.1-0.3,2.3-1.5,2.3H31z M31.5,20.6h0.8c0.8,0,1.1-0.6,1-1.9
			c0-1.1-0.2-1.8-1-1.8h-0.8V20.6z"/>
	</g>
	<g>
		<circle class="st26" cx="48.6" cy="13.9" r="10.9"/>
		<circle class="st30" cx="48.7" cy="13.5" r="10.8"/>
	</g>
	<ellipse class="st26" cx="48.6" cy="26.4" rx="7.4" ry="0.6"/>
	<g>
		<g>
			<path class="st31" d="M52.6,12.1V11c0-2,0.1-6.1-4-6.1h0.1c-4.1,0-4,4.1-4,6.1v1.1h-1.9v-0.9c0-4,0.6-8,5.9-8h-0.1
				c5.3,0,5.9,4.5,5.9,8v0.9H52.6z"/>
			<path class="st32" d="M53.7,12.1v-1.2c0-1.9,0.1-7.1-5.1-7.1h0.1c-5.5,0-5.1,5.2-5.1,7.1v1.2H43V11c0-3.8,0.5-7.7,5.7-7.7h-0.1
				c5.1,0,5.7,4.3,5.7,7.7v1.1H53.7z"/>
			<path class="st33" d="M52.9,12.1v-1.2c0-1.9-0.1-6.1-4.3-6.1h0.1c-4.4,0-4.3,4.2-4.3,6.1v1.2h-0.6V11c0-3.8,0.6-6.7,4.8-6.7h-0.1
				c4,0,4.8,3.3,4.8,6.7v1.1H52.9z"/>
		</g>
		<g>
			<g>
				<g>
					<defs>
						<path id="SVGID_3_" d="M43.4,11.9c-1.7,0-1.7,0-1.7,1.7v8.5c0,0.9,0.7,1.7,1.7,1.7h10.4c0.9,0,1.7-0.7,1.7-1.7v-8.5
							c0-1.7,0-1.7-1.7-1.7H43.4z"/>
					</defs>
					<clipPath id="SVGID_4_">
						<use xlink:href="#SVGID_3_"  style="overflow:visible;"/>
					</clipPath>
					<rect x="41.8" y="11.9" class="st34" width="0" height="11.9"/>
					<rect x="41.8" y="11.9" class="st34" width="0" height="11.9"/>
					<rect x="41.8" y="11.9" class="st35" width="0" height="11.9"/>
					<rect x="41.9" y="11.9" class="st36" width="0" height="11.9"/>
					<rect x="41.9" y="11.9" class="st37" width="0" height="11.9"/>
					<rect x="41.9" y="11.9" class="st38" width="0" height="11.9"/>
					<rect x="42" y="11.9" class="st39" width="0" height="11.9"/>
					<rect x="42" y="11.9" class="st40" width="0" height="11.9"/>
					<rect x="42" y="11.9" class="st41" width="0" height="11.9"/>
					<rect x="42.1" y="11.9" class="st42" width="0" height="11.9"/>
					<rect x="42.1" y="11.9" class="st43" width="0" height="11.9"/>
					<rect x="42.1" y="11.9" class="st44" width="0" height="11.9"/>
					<rect x="42.2" y="11.9" class="st45" width="0" height="11.9"/>
					<rect x="42.2" y="11.9" class="st46" width="0" height="11.9"/>
					<rect x="42.2" y="11.9" class="st47" width="0" height="11.9"/>
					<rect x="42.3" y="11.9" class="st48" width="0" height="11.9"/>
					<rect x="42.3" y="11.9" class="st49" width="0" height="11.9"/>
					<rect x="42.3" y="11.9" class="st50" width="0" height="11.9"/>
					<rect x="42.4" y="11.9" class="st51" width="0" height="11.9"/>
					<rect x="42.4" y="11.9" class="st52" width="0" height="11.9"/>
					<rect x="42.5" y="11.9" class="st53" width="0" height="11.9"/>
					<rect x="42.5" y="11.9" class="st54" width="0" height="11.9"/>
					<rect x="42.5" y="11.9" class="st55" width="0" height="11.9"/>
					<rect x="42.6" y="11.9" class="st56" width="0" height="11.9"/>
					<rect x="42.6" y="11.9" class="st57" width="0" height="11.9"/>
					<rect x="42.6" y="11.9" class="st58" width="0" height="11.9"/>
					<rect x="42.7" y="11.9" class="st59" width="0" height="11.9"/>
					<rect x="42.7" y="11.9" class="st60" width="0" height="11.9"/>
					<rect x="42.7" y="11.9" class="st61" width="0" height="11.9"/>
					<rect x="42.8" y="11.9" class="st61" width="4.9" height="11.9"/>
					<rect x="47.7" y="11.9" class="st61" width="0" height="11.9"/>
					<rect x="47.7" y="11.9" class="st61" width="0" height="11.9"/>
					<rect x="47.8" y="11.9" class="st62" width="0" height="11.9"/>
					<rect x="47.8" y="11.9" class="st63" width="0" height="11.9"/>
					<rect x="47.8" y="11.9" class="st64" width="0" height="11.9"/>
					<rect x="47.9" y="11.9" class="st65" width="0" height="11.9"/>
					<rect x="47.9" y="11.9" class="st66" width="0" height="11.9"/>
					<rect x="48" y="11.9" class="st67" width="0" height="11.9"/>
					<rect x="48" y="11.9" class="st57" width="0" height="11.9"/>
					<rect x="48" y="11.9" class="st68" width="0" height="11.9"/>
					<rect x="48.1" y="11.9" class="st69" width="0" height="11.9"/>
					<rect x="48.1" y="11.9" class="st70" width="0" height="11.9"/>
					<rect x="48.2" y="11.9" class="st71" width="0" height="11.9"/>
					<rect x="48.2" y="11.9" class="st72" width="0" height="11.9"/>
					<rect x="48.3" y="11.9" class="st73" width="0" height="11.9"/>
					<rect x="48.3" y="11.9" class="st74" width="0" height="11.9"/>
					<rect x="48.3" y="11.9" class="st75" width="0" height="11.9"/>
					<rect x="48.4" y="11.9" class="st76" width="0" height="11.9"/>
					<rect x="48.4" y="11.9" class="st77" width="0" height="11.9"/>
					<rect x="48.5" y="11.9" class="st78" width="0" height="11.9"/>
					<rect x="48.5" y="11.9" class="st79" width="0" height="11.9"/>
					<rect x="48.5" y="11.9" class="st80" width="0" height="11.9"/>
					<rect x="48.6" y="11.9" class="st81" width="0" height="11.9"/>
					<rect x="48.6" y="11.9" class="st40" width="0" height="11.9"/>
					<rect x="48.7" y="11.9" class="st82" width="0" height="11.9"/>
					<rect x="48.7" y="11.9" class="st37" width="0" height="11.9"/>
					<rect x="48.7" y="11.9" class="st83" width="0" height="11.9"/>
					<rect x="48.8" y="11.9" class="st34" width="0" height="11.9"/>
					<rect x="48.8" y="11.9" class="st34" width="6.4" height="11.9"/>
					<rect x="55.3" y="11.9" class="st34" width="0.2" height="11.9"/>
				</g>
			</g>
			<g>
				<g>
					<defs>
						<path id="SVGID_5_" d="M41.5,22.1c-0.3,1.7,0,1.7,1.7,1.7H54c1.7,0,2.1,0.2,1.7-1.7l-0.2-0.9H41.8L41.5,22.1z"/>
					</defs>
					<clipPath id="SVGID_6_">
						<use xlink:href="#SVGID_5_"  style="overflow:visible;"/>
					</clipPath>
					<rect x="41.3" y="21.1" class="st84" width="0.2" height="2.8"/>
					<rect x="41.5" y="21.1" class="st84" width="0.1" height="2.8"/>
					<rect x="41.6" y="21.1" class="st85" width="0.1" height="2.8"/>
					<rect x="41.6" y="21.1" class="st86" width="0.1" height="2.8"/>
					<rect x="41.7" y="21.1" class="st87" width="0.1" height="2.8"/>
					<rect x="41.8" y="21.1" class="st88" width="0.1" height="2.8"/>
					<rect x="41.9" y="21.1" class="st89" width="0.1" height="2.8"/>
					<rect x="41.9" y="21.1" class="st90" width="0.1" height="2.8"/>
					<rect x="42" y="21.1" class="st91" width="0.1" height="2.8"/>
					<rect x="42.1" y="21.1" class="st92" width="0.1" height="2.8"/>
					<rect x="42.2" y="21.1" class="st93" width="0.1" height="2.8"/>
					<rect x="42.2" y="21.1" class="st94" width="0.1" height="2.8"/>
					<rect x="42.3" y="21.1" class="st95" width="0.1" height="2.8"/>
					<rect x="42.4" y="21.1" class="st96" width="0.1" height="2.8"/>
					<rect x="42.4" y="21.1" class="st97" width="0.1" height="2.8"/>
					<rect x="42.5" y="21.1" class="st98" width="0.1" height="2.8"/>
					<rect x="42.6" y="21.1" class="st99" width="0.1" height="2.8"/>
					<rect x="42.7" y="21.1" class="st100" width="0.1" height="2.8"/>
					<rect x="42.7" y="21.1" class="st101" width="0.1" height="2.8"/>
					<rect x="42.8" y="21.1" class="st101" width="4.9" height="2.8"/>
					<rect x="47.7" y="21.1" class="st101" width="0.2" height="2.8"/>
					<rect x="48" y="21.1" class="st102" width="0.2" height="2.8"/>
					<rect x="48.2" y="21.1" class="st103" width="0.2" height="2.8"/>
					<rect x="48.4" y="21.1" class="st104" width="0.2" height="2.8"/>
					<rect x="48.6" y="21.1" class="st105" width="0.2" height="2.8"/>
					<rect x="48.8" y="21.1" class="st106" width="0.2" height="2.8"/>
					<rect x="49" y="21.1" class="st107" width="0.2" height="2.8"/>
					<rect x="49.2" y="21.1" class="st108" width="0.2" height="2.8"/>
					<rect x="49.4" y="21.1" class="st109" width="0.2" height="2.8"/>
					<rect x="49.7" y="21.1" class="st110" width="0.2" height="2.8"/>
					<rect x="49.9" y="21.1" class="st111" width="0.2" height="2.8"/>
					<rect x="50.1" y="21.1" class="st112" width="0.2" height="2.8"/>
					<rect x="50.3" y="21.1" class="st113" width="0.2" height="2.8"/>
					<rect x="50.5" y="21.1" class="st114" width="0.2" height="2.8"/>
					<rect x="50.7" y="21.1" class="st115" width="0.2" height="2.8"/>
					<rect x="50.9" y="21.1" class="st116" width="0.2" height="2.8"/>
					<rect x="51.1" y="21.1" class="st117" width="0.2" height="2.8"/>
					<rect x="51.3" y="21.1" class="st118" width="0.2" height="2.8"/>
					<rect x="51.6" y="21.1" class="st119" width="0.2" height="2.8"/>
					<rect x="51.8" y="21.1" class="st119" width="4.1" height="2.8"/>
					<rect x="55.9" y="21.1" class="st119" width="0.3" height="2.8"/>
				</g>
			</g>
		</g>
	</g>
</g>
</svg>
