<?xml version="1.0" encoding="utf-8"?>
<!-- Generator: Adobe Illustrator 21.0.0, SVG Export Plug-In . SVG Version: 6.00 Build 0)  -->
<svg version="1.1" id="Capa_1" xmlns="http://www.w3.org/2000/svg" xmlns:xlink="http://www.w3.org/1999/xlink" x="0px" y="0px"
	 viewBox="0 0 61.3 16.3" style="enable-background:new 0 0 61.3 16.3;" xml:space="preserve">
<style type="text/css">
	.st0{fill:#253B80;}
	.st1{fill:#179BD7;}
</style>
<g>
	<path class="st0" d="M7.4,0H2.6C2.3,0,2,0.2,1.9,0.6L0,12.8c0,0.2,0.1,0.5,0.4,0.5h2.3c0.3,0,0.6-0.2,0.7-0.6l0.5-3.3
		c0.1-0.3,0.3-0.6,0.7-0.6H6c3.1,0,5-1.5,5.4-4.5c0.2-1.3,0-2.4-0.6-3.1C10.2,0.4,9,0,7.4,0z M7.9,4.5C7.7,6.2,6.3,6.2,5.1,6.2H4.4
		L4.9,3c0-0.2,0.2-0.3,0.4-0.3h0.3c0.9,0,1.7,0,2.1,0.5C7.9,3.4,8,3.9,7.9,4.5z"/>
	<path class="st0" d="M21.6,4.4h-2.3c-0.2,0-0.4,0.1-0.4,0.3l-0.1,0.6l-0.2-0.2c-0.5-0.7-1.6-1-2.7-1c-2.5,0-4.7,1.9-5.1,4.6
		c-0.2,1.3,0.1,2.6,0.9,3.5c0.7,0.8,1.7,1.2,2.9,1.2c2,0,3.2-1.3,3.2-1.3l-0.1,0.6c0,0.2,0.1,0.5,0.4,0.5h2.1c0.3,0,0.6-0.2,0.7-0.6
		L22,4.9C22.1,4.6,21.9,4.4,21.6,4.4z M18.4,8.9c-0.2,1.3-1.3,2.2-2.6,2.2c-0.7,0-1.2-0.2-1.5-0.6C14,10,13.9,9.5,14,8.8
		c0.2-1.3,1.3-2.2,2.6-2.2c0.6,0,1.2,0.2,1.5,0.6C18.4,7.7,18.5,8.2,18.4,8.9z"/>
	<path class="st0" d="M33.8,4.4h-2.3c-0.2,0-0.4,0.1-0.5,0.3l-3.2,4.7l-1.3-4.5c-0.1-0.3-0.3-0.5-0.6-0.5h-2.3
		c-0.3,0-0.5,0.3-0.4,0.5l2.5,7.4l-2.4,3.4c-0.2,0.3,0,0.6,0.3,0.6h2.3c0.2,0,0.4-0.1,0.5-0.3l7.6-11C34.3,4.8,34.1,4.4,33.8,4.4z"
		/>
	<path class="st1" d="M41.4,0h-4.8C36.3,0,36,0.2,36,0.6L34,12.8c0,0.2,0.1,0.5,0.4,0.5h2.4c0.2,0,0.4-0.2,0.5-0.4l0.5-3.5
		c0.1-0.3,0.3-0.6,0.7-0.6H40c3.1,0,5-1.5,5.4-4.5c0.2-1.3,0-2.4-0.6-3.1C44.2,0.4,43,0,41.4,0z M41.9,4.5c-0.3,1.7-1.6,1.7-2.8,1.7
		h-0.7L38.9,3c0-0.2,0.2-0.3,0.4-0.3h0.3c0.9,0,1.7,0,2.1,0.5C42,3.4,42,3.9,41.9,4.5z"/>
	<path class="st1" d="M55.7,4.4h-2.3c-0.2,0-0.4,0.1-0.4,0.3l-0.1,0.6l-0.2-0.2c-0.5-0.7-1.6-1-2.7-1c-2.5,0-4.7,1.9-5.1,4.6
		c-0.2,1.3,0.1,2.6,0.9,3.5c0.7,0.8,1.7,1.2,2.9,1.2c2,0,3.2-1.3,3.2-1.3l-0.1,0.6c0,0.2,0.1,0.5,0.4,0.5h2.1c0.3,0,0.6-0.2,0.7-0.6
		L56,4.9C56.1,4.6,55.9,4.4,55.7,4.4z M52.5,8.9c-0.2,1.3-1.3,2.2-2.6,2.2c-0.7,0-1.2-0.2-1.5-0.6C48,10,47.9,9.5,48,8.8
		c0.2-1.3,1.3-2.2,2.6-2.2c0.6,0,1.2,0.2,1.5,0.6C52.4,7.7,52.6,8.2,52.5,8.9z"/>
	<path class="st1" d="M58.3,0.3l-2,12.5c0,0.2,0.1,0.5,0.4,0.5h2c0.3,0,0.6-0.2,0.7-0.6l1.9-12.2c0-0.2-0.1-0.5-0.4-0.5h-2.2
		C58.5,0,58.4,0.1,58.3,0.3z"/>
</g>
</svg>
