<?xml version="1.0" encoding="utf-8"?>
<!-- Generator: Adobe Illustrator 21.0.0, SVG Export Plug-In . SVG Version: 6.00 Build 0)  -->
<svg version="1.1" id="Capa_1" xmlns="http://www.w3.org/2000/svg" xmlns:xlink="http://www.w3.org/1999/xlink" x="0px" y="0px"
	 viewBox="0 0 200 124.2" style="enable-background:new 0 0 200 124.2;" xml:space="preserve">
<style type="text/css">
	.st0{fill:#86C4D1;}
	.st1{fill:#24384C;}
</style>
<g>
	<g>
		<g>
			<g>
				<g>
					<path class="st0" d="M70.6,37.4c-0.3,0-0.6-0.1-0.8-0.3c-2-1.7-4.5-3.6-5.2-3.9c-1,0-2.8,0.2-3.4,0.5c-0.6,0.3-1.4,0-1.7-0.6
						c-0.3-0.6,0-1.4,0.6-1.7c1.3-0.6,3.8-0.7,4.6-0.7c0.4,0,1.4,0,6.7,4.5c0.5,0.4,0.6,1.2,0.1,1.8C71.3,37.3,71,37.4,70.6,37.4z"
						/>
				</g>
				<g>
					<path class="st0" d="M24.7,65.5H1.3C0.6,65.5,0,65,0,64.3C0,63.6,0.6,63,1.3,63h22.2v-9.2c0-0.2,0-0.4,0.1-0.5
						c0.5-1,1.1-2.8,1.1-3.5c0-0.1-0.4-0.7-0.7-1.1c-0.9-1.4-2.3-3.4-2.5-6.4c-0.3-5.9,3.6-9.4,13.3-12c7.4-2,6.9-5.2,6.1-10.1
						c-0.1-0.8-0.3-1.7-0.4-2.6c-0.1-0.7,0.4-1.3,1.1-1.4c0.7-0.1,1.3,0.4,1.4,1.1c0.1,0.8,0.2,1.6,0.3,2.4c0.8,4.9,1.6,10.4-8,12.9
						c-10.8,2.9-11.6,6.3-11.4,9.4c0.1,2.3,1.2,3.9,2,5.1c0.6,0.9,1.1,1.6,1.1,2.5c0,1.3-0.9,3.4-1.3,4.3v10.2
						C26,65,25.4,65.5,24.7,65.5z"/>
				</g>
				<g>
					<path class="st0" d="M33.3,65.5c-0.3,0-0.6-0.1-0.8-0.3l-4.2-3.8c-0.3-0.2-0.4-0.6-0.4-0.9V54c0-0.6,0.4-1.1,1-1.2
						c0.1,0,2.4-0.5,3.9-2.9c1.5-2.3,1.7-5.6,0.6-9.8c-0.2-0.7,0.2-1.4,0.9-1.5c0.7-0.2,1.4,0.2,1.5,0.9c1.2,4.9,0.9,8.9-1,11.8
						c-1.4,2.2-3.3,3.2-4.5,3.7v5l3.8,3.4c0.5,0.5,0.6,1.3,0.1,1.8C34,65.4,33.7,65.5,33.3,65.5z"/>
				</g>
				<g>
					<path class="st0" d="M66.8,65.5H49.2c-0.3,0-0.6-0.1-0.8-0.3L36.7,54.5c-0.3-0.3-0.4-0.7-0.4-1.1c0-0.4,0.3-0.7,0.6-1
						c0,0,3.2-2,3.8-5.4c0.1-0.7,0.8-1.1,1.5-1c0.7,0.1,1.1,0.8,1,1.5c-0.5,3-2.4,5-3.7,6.2L49.7,63h17.1c0.7,0,1.3,0.6,1.3,1.3
						C68.1,65,67.5,65.5,66.8,65.5z"/>
				</g>
				<g>
					<path class="st0" d="M53.2,55.6c-0.2,0-0.5-0.1-0.7-0.2l-1.4-1c-0.1,0-0.1-0.1-0.2-0.1c-1.9-1.9,0-5.3,0.2-5.7
						c0.2-0.3,0.5-0.5,0.8-0.6l3.2-0.7l0.6-2.3l-3.8-3.7C49.4,42.5,41.4,46,35,44.8c-0.7-0.1-1.1-0.8-1-1.5c0.1-0.7,0.8-1.1,1.5-1
						c6.8,1.3,16-3.6,16.1-3.6c0.5-0.3,1.1-0.2,1.5,0.2l4.9,4.8c0.3,0.3,0.4,0.8,0.3,1.2l-0.9,3.8c-0.1,0.5-0.5,0.8-1,0.9L53,50.3
						c-0.4,0.9-0.6,1.8-0.4,2.1l0.8,0.5L59,51c1.5-2.9,3-6.3,3-7.2c-0.3-0.9-4.1-4.4-7.5-7c-0.4-0.3-0.6-0.9-0.4-1.4
						c0-0.1,1.7-5.6-0.9-9.6c-1-1.6-1.9-2.8-2.7-3.9c-1.6-2.2-2.7-3.7-2.5-5.3c0.1-1,0.9-2.3,2.1-4.3c0.8-1.2,2-3.2,2-3.9
						c-0.1-0.7-0.2-1.1-0.3-1.3c-0.1,0-0.3,0.1-0.5,0.3c-0.7,0.5-1.8,1.4-3.2,2.6c-3.6,3-6.5,5.3-8.2,6c-3.5,1.3-7.5,2-12.1-7.8
						c-0.3-0.6,0-1.4,0.6-1.7c0.6-0.3,1.4,0,1.7,0.6c3.9,8.4,6.7,7.3,8.9,6.5c1.4-0.5,5-3.6,7.5-5.5C48,6.9,49.2,5.9,50,5.4
						c1.1-0.8,2.1-1,3-0.6c1.4,0.6,1.6,2.4,1.7,3.4c0.2,1.3-0.8,2.9-2.4,5.5c-0.7,1.1-1.7,2.7-1.8,3.2c-0.1,0.6,0.9,2,2,3.5
						c0.8,1.1,1.7,2.4,2.8,4c2.6,4,1.8,8.9,1.4,10.9c3.7,2.9,7.8,6.5,7.8,8.5c0,2-2.7,7.3-3.5,8.9c-0.1,0.3-0.4,0.5-0.7,0.6
						l-6.7,2.3C53.5,55.5,53.3,55.6,53.2,55.6z"/>
				</g>
				<g>
					<path class="st0" d="M32.3,17.6c-9.5,0-16.5-7-16.9-7.3C15,9.8,15,9,15.5,8.5s1.3-0.5,1.8,0c0.1,0.1,10.3,10.1,21.9,5.2
						c0.6-0.3,1.4,0,1.6,0.7c0.3,0.6,0,1.4-0.7,1.6C37.4,17.1,34.8,17.6,32.3,17.6z"/>
				</g>
				<g>
					<path class="st0" d="M22.2,21.4c-1.9,0-3.6-0.5-4.8-1.1c-0.6-0.3-0.9-1.1-0.6-1.7c0.3-0.6,1-0.9,1.7-0.6
						c0.3,0.1,6.4,2.9,9.3-2.7c0.3-0.6,1.1-0.9,1.7-0.5c0.6,0.3,0.9,1.1,0.5,1.7C28,20.3,25,21.4,22.2,21.4z"/>
				</g>
				<g>
					<path class="st0" d="M41.6,65.5c-0.4,0-0.7-0.2-1-0.5l-9.4-11.9c-0.4-0.5-0.3-1.3,0.2-1.8c0.5-0.4,1.3-0.3,1.8,0.2l9.4,11.9
						c0.4,0.5,0.3,1.3-0.2,1.8C42.1,65.4,41.9,65.5,41.6,65.5z"/>
				</g>
				<g>
					<path class="st0" d="M70.6,30.4c-0.2,0-0.5-0.1-0.7-0.2c-0.8-0.5-3.1-1.9-4.1-2.3c-0.9-0.2-6,0.3-10.2,0.9
						c-0.7,0.1-1.3-0.4-1.4-1.1c-0.1-0.7,0.4-1.3,1.1-1.4C58.1,26,65,25,66.6,25.6c1.6,0.6,4.3,2.3,4.7,2.5c0.6,0.4,0.8,1.2,0.4,1.7
						C71.4,30.2,71,30.4,70.6,30.4z"/>
				</g>
			</g>
			<g>
				<g>
					<path class="st0" d="M129.4,37.4c-0.4,0-0.7-0.2-1-0.4c-0.4-0.5-0.4-1.3,0.1-1.8c5.3-4.5,6.3-4.5,6.7-4.5
						c0.8,0,3.3,0.2,4.6,0.7c0.6,0.3,0.9,1,0.6,1.7c-0.3,0.6-1,0.9-1.7,0.6c-0.6-0.3-2.5-0.5-3.4-0.5c-0.7,0.3-3.2,2.2-5.2,3.9
						C130,37.3,129.7,37.4,129.4,37.4z M135.5,33.2L135.5,33.2z"/>
				</g>
				<g>
					<path class="st0" d="M198.7,65.5h-23.5c-0.7,0-1.3-0.6-1.3-1.3V54.1c-0.4-0.8-1.3-3-1.3-4.3c0-0.8,0.5-1.6,1.1-2.5
						c0.9-1.3,1.9-2.8,2-5.1c0.2-3.1-0.6-6.6-11.4-9.4c-9.6-2.5-8.7-8.1-8-12.9c0.1-0.8,0.3-1.6,0.3-2.4c0.1-0.7,0.7-1.2,1.4-1.1
						c0.7,0.1,1.2,0.7,1.1,1.4c-0.1,0.9-0.2,1.7-0.4,2.6c-0.8,4.9-1.3,8.2,6.1,10.1c9.7,2.6,13.6,6,13.3,12c-0.2,3-1.5,5.1-2.5,6.4
						c-0.3,0.4-0.6,0.9-0.7,1.1c0,0.6,0.7,2.4,1.1,3.4c0.1,0.2,0.1,0.3,0.1,0.5V63h22.2c0.7,0,1.3,0.6,1.3,1.3
						C200,65,199.4,65.5,198.7,65.5z"/>
				</g>
				<g>
					<path class="st0" d="M166.7,65.5c-0.3,0-0.7-0.1-0.9-0.4c-0.5-0.5-0.4-1.3,0.1-1.8l3.8-3.4v-5c-1.2-0.4-3.1-1.5-4.5-3.7
						c-1.9-2.9-2.2-6.9-1-11.8c0.2-0.7,0.9-1.1,1.5-0.9c0.7,0.2,1.1,0.9,0.9,1.5c-1,4.2-0.8,7.5,0.6,9.8c1.5,2.4,3.8,2.9,3.9,2.9
						c0.6,0.1,1,0.6,1,1.2v6.5c0,0.4-0.2,0.7-0.4,0.9l-4.2,3.8C167.3,65.4,167,65.5,166.7,65.5z"/>
				</g>
				<g>
					<path class="st0" d="M150.8,65.5h-17.6c-0.7,0-1.3-0.6-1.3-1.3c0-0.7,0.6-1.3,1.3-1.3h17.1l10.3-9.3c-1.3-1.1-3.1-3.2-3.7-6.2
						c-0.1-0.7,0.3-1.3,1-1.5c0.7-0.1,1.3,0.3,1.5,1c0.6,3.5,3.8,5.4,3.8,5.4c0.3,0.2,0.6,0.6,0.6,1c0,0.4-0.1,0.8-0.4,1.1
						l-11.7,10.7C151.4,65.4,151.1,65.5,150.8,65.5z"/>
				</g>
				<g>
					<path class="st0" d="M146.8,55.6c-0.1,0-0.3,0-0.4-0.1l-6.7-2.3c-0.3-0.1-0.6-0.3-0.7-0.6c-0.8-1.6-3.5-6.8-3.5-8.9
						c0-2,4.1-5.6,7.8-8.5c-0.4-2-1.1-6.8,1.4-10.9c1-1.6,2-3,2.8-4c1.1-1.6,2.1-2.9,2-3.5c-0.1-0.5-1.1-2.1-1.8-3.2
						c-1.6-2.6-2.6-4.2-2.4-5.5c0.1-1,0.3-2.8,1.7-3.4c0.9-0.4,1.9-0.2,3,0.6c0.7,0.5,2,1.5,3.4,2.7c2.4,2,6.1,5,7.5,5.5
						c2.2,0.9,5,1.9,8.9-6.5c0.3-0.6,1-0.9,1.7-0.6c0.6,0.3,0.9,1,0.6,1.7c-4.5,9.7-8.6,9.1-12.1,7.8c-1.6-0.6-4.5-3-8.2-6
						c-1.4-1.1-2.6-2.1-3.2-2.6c-0.2-0.2-0.4-0.2-0.5-0.3c-0.1,0.2-0.2,0.5-0.3,1.3c0,0.6,1.3,2.6,2,3.8c1.2,2,2,3.3,2.1,4.3
						c0.2,1.6-0.9,3-2.5,5.3c-0.8,1.1-1.7,2.3-2.7,3.9c-2.6,4.1-0.9,9.6-0.9,9.6c0.2,0.5,0,1.1-0.4,1.4c-3.4,2.6-7.2,6-7.5,7.1
						c0,0.8,1.5,4.3,3,7.2l5.6,1.9l0.8-0.5c0.2-0.3,0-1.2-0.4-2.1l-3.4-0.7c-0.5-0.1-0.8-0.5-1-0.9l-0.9-3.8c-0.1-0.4,0-0.9,0.3-1.2
						l4.9-4.8c0.4-0.4,1-0.5,1.5-0.2c0.1,0,9.3,4.9,16.1,3.6c0.7-0.1,1.3,0.3,1.5,1c0.1,0.7-0.3,1.3-1,1.5
						c-6.4,1.2-14.3-2.2-16.9-3.5l-3.8,3.7l0.6,2.3l3.2,0.7c0.4,0.1,0.7,0.3,0.8,0.6c0.2,0.4,2.1,3.8,0.2,5.7
						c-0.1,0.1-0.1,0.1-0.2,0.1l-1.4,1C147.3,55.5,147,55.6,146.8,55.6z"/>
				</g>
				<g>
					<path class="st0" d="M167.7,17.6c-2.4,0-5-0.5-7.7-1.6c-0.6-0.3-0.9-1-0.7-1.6c0.3-0.6,1-0.9,1.6-0.7
						c11.6,4.9,21.8-5.1,21.9-5.2c0.5-0.5,1.3-0.5,1.8,0c0.5,0.5,0.5,1.3,0,1.8C184.2,10.6,177.2,17.6,167.7,17.6z"/>
				</g>
				<g>
					<path class="st0" d="M177.8,21.4c-2.8,0-5.9-1.1-7.8-4.9c-0.3-0.6-0.1-1.4,0.5-1.7c0.6-0.3,1.4-0.1,1.7,0.5
						c2.9,5.6,9,2.8,9.3,2.7c0.6-0.3,1.4,0,1.7,0.6c0.3,0.6,0,1.4-0.6,1.7C181.5,20.9,179.7,21.4,177.8,21.4z"/>
				</g>
				<g>
					<path class="st0" d="M158.4,65.5c-0.3,0-0.5-0.1-0.8-0.3c-0.5-0.4-0.6-1.2-0.2-1.8l9.4-11.9c0.4-0.5,1.2-0.6,1.8-0.2
						c0.5,0.4,0.6,1.2,0.2,1.8L159.4,65C159.2,65.4,158.8,65.5,158.4,65.5z"/>
				</g>
				<g>
					<path class="st0" d="M129.4,30.4c-0.4,0-0.8-0.2-1.1-0.6c-0.4-0.6-0.2-1.4,0.4-1.7c0.3-0.2,3.1-2,4.7-2.5
						c1.6-0.6,8.5,0.4,11.4,0.8c0.7,0.1,1.2,0.7,1.1,1.4c-0.1,0.7-0.7,1.2-1.4,1.1c-4.2-0.6-9.3-1.2-10.2-0.9
						c-1.1,0.4-3.3,1.8-4.1,2.3C129.9,30.4,129.6,30.4,129.4,30.4z"/>
				</g>
			</g>
			<g>
				<path class="st0" d="M100.1,73.6L100.1,73.6c-23.3,0-30.6-20.8-30.6-26.7V6.4c0-0.5,0.3-1,0.9-1.2C70.9,5,85.7,0,100,0
					c14.3,0,29.2,5,29.8,5.2c0.5,0.2,0.9,0.7,0.9,1.2v40.5C130.7,52.8,123.3,73.6,100.1,73.6z M72,7.3v39.6
					c0,5.3,6.7,24.2,28.1,24.2h0.1c21.3,0,28.1-18.9,28.1-24.2V7.3c-3.4-1.1-16.1-4.8-28.1-4.8C88.1,2.5,75.3,6.2,72,7.3z"/>
			</g>
			<g>
				<path class="st0" d="M100.1,65.4L100.1,65.4c-18.2,0-23.9-16.3-23.9-20.9V13.4c0-0.5,0.3-1,0.9-1.2c0.5-0.2,11.9-4,23-4
					c11.1,0,22.5,3.9,23,4c0.5,0.2,0.9,0.7,0.9,1.2v31.2C123.9,49.2,118.2,65.4,100.1,65.4z M78.7,14.3v30.3c0,2.4,4,18.3,21.3,18.3
					h0c17.3,0,21.3-15.9,21.3-18.3V14.3c-2.9-0.9-12.4-3.6-21.3-3.6C91.1,10.7,81.6,13.4,78.7,14.3z"/>
			</g>
		</g>
		<g>
			<g>
				<path class="st1" d="M34.4,108.3c-0.4,0-0.8-0.1-1.1-0.4c-0.3-0.3-0.5-0.6-0.7-1l-2.8-11l-2.9,10.9c-0.2,0.4-0.4,0.8-0.7,1
					c-0.3,0.3-0.7,0.4-1.1,0.4c-0.4,0-0.8-0.1-1.1-0.4c-0.3-0.2-0.5-0.6-0.7-1l-4.6-15.4c-0.1-0.3-0.1-0.5-0.1-0.8
					c0-0.5,0.1-0.9,0.4-1.2c0.2-0.2,0.6-0.5,1.2-0.5c0.4,0,0.8,0.1,1.1,0.4c0.3,0.2,0.5,0.6,0.7,1l3.2,11L28,90.6
					c0.1-0.4,0.3-0.7,0.7-0.9c0.3-0.2,0.7-0.3,1.1-0.3c0.4,0,0.7,0.1,1,0.3c0.3,0.2,0.6,0.6,0.7,0.9l2.9,10.9l3.2-11.2
					c0.1-0.4,0.3-0.7,0.7-0.9c0.3-0.2,0.7-0.3,1.1-0.3c0.6,0,1,0.3,1.2,0.5c0.2,0.3,0.4,0.7,0.4,1.1c0,0.3,0,0.6-0.1,0.8l-4.6,15.3
					c-0.2,0.4-0.4,0.7-0.7,1C35.2,108.2,34.8,108.3,34.4,108.3z"/>
			</g>
			<g>
				<path class="st1" d="M49.8,108.3c-0.5,0-0.9-0.2-1.3-0.5c-0.3-0.3-0.5-0.8-0.5-1.3V90.9c0-0.5,0.2-1,0.5-1.3
					c0.3-0.3,0.8-0.5,1.3-0.5h10.4c0.5,0,0.9,0.2,1.3,0.5c0.3,0.3,0.5,0.8,0.5,1.3c0,0.5-0.2,0.9-0.5,1.2c-0.3,0.3-0.8,0.5-1.3,0.5
					h-8.6v4.3h6c0.5,0,0.9,0.2,1.3,0.5c0.3,0.3,0.5,0.8,0.5,1.2c0,0.5-0.2,0.9-0.5,1.2c-0.3,0.3-0.8,0.5-1.3,0.5h-6v4.5h8.6
					c0.5,0,0.9,0.2,1.3,0.5c0.3,0.3,0.5,0.7,0.5,1.2c0,0.5-0.2,0.9-0.5,1.3c-0.3,0.3-0.8,0.5-1.3,0.5H49.8z"/>
			</g>
			<g>
				<path class="st1" d="M71.6,108.3c-0.5,0-0.9-0.2-1.3-0.5c-0.3-0.3-0.5-0.8-0.5-1.3V90.9c0-0.5,0.2-0.9,0.5-1.3
					c0.3-0.3,0.8-0.5,1.3-0.5c0.5,0,0.9,0.2,1.3,0.5c0.3,0.3,0.5,0.8,0.5,1.3v13.7h7.7c0.5,0,0.9,0.2,1.3,0.5
					c0.3,0.3,0.5,0.8,0.5,1.3c0,0.5-0.2,0.9-0.5,1.3c-0.3,0.3-0.8,0.5-1.3,0.5H71.6z"/>
			</g>
			<g>
				<path class="st1" d="M97.3,108.5c-1.7,0-3.4-0.4-4.8-1.3c-1.4-0.9-2.6-2.1-3.4-3.6c-0.8-1.5-1.2-3.2-1.2-5
					c0-1.8,0.4-3.4,1.2-4.9c0.8-1.5,2-2.7,3.4-3.6c1.4-0.9,3.1-1.3,4.8-1.3c1.2,0,2.3,0.2,3.2,0.5c0.9,0.3,1.8,0.9,2.8,1.6
					c0.3,0.2,0.4,0.4,0.6,0.7c0.1,0.2,0.1,0.5,0.1,0.8c0,0.5-0.2,0.9-0.5,1.2c-0.3,0.3-0.7,0.5-1.2,0.5c-0.4,0-0.8-0.1-1.2-0.4
					c-0.6-0.5-1.1-0.9-1.7-1.1c-0.5-0.2-1.2-0.3-2.1-0.3c-1.1,0-2.1,0.3-3,0.8c-0.9,0.6-1.6,1.4-2.2,2.3c-0.5,1-0.8,2.1-0.8,3.2
					c0,1.2,0.3,2.3,0.8,3.2c0.5,1,1.3,1.8,2.2,2.3c0.9,0.6,1.9,0.8,3,0.8c1.3,0,2.6-0.5,3.9-1.4c0.4-0.3,0.8-0.4,1.1-0.4
					c0.5,0,0.9,0.2,1.2,0.5c0.3,0.3,0.5,0.7,0.5,1.2c0,0.5-0.2,0.9-0.5,1.3C101.6,107.8,99.5,108.5,97.3,108.5z"/>
			</g>
			<g>
				<g>
					<path class="st1" d="M121.2,108.5c-1.9,0-3.6-0.4-5-1.3c-1.5-0.8-2.6-2-3.5-3.5c-0.8-1.5-1.2-3.2-1.2-5.1
						c0-1.9,0.4-3.6,1.2-5.1c0.8-1.5,2-2.7,3.5-3.5c1.5-0.8,3.2-1.3,5-1.3c1.9,0,3.6,0.4,5,1.3c1.5,0.8,2.7,2,3.5,3.5
						c0.8,1.5,1.2,3.2,1.2,5.1c0,1.9-0.4,3.6-1.2,5.1c-0.8,1.5-2,2.7-3.5,3.5C124.7,108.1,123,108.5,121.2,108.5z M121.2,92.3
						c-1.2,0-2.3,0.3-3.2,0.8c-0.9,0.6-1.7,1.3-2.2,2.3c-0.5,1-0.8,2.1-0.8,3.3c0,1.2,0.3,2.3,0.8,3.3c0.5,1,1.3,1.7,2.2,2.3
						c0.9,0.6,2,0.8,3.2,0.8c1.2,0,2.3-0.3,3.2-0.8c0.9-0.6,1.7-1.3,2.2-2.3c0.5-1,0.8-2.1,0.8-3.3c0-1.2-0.3-2.3-0.8-3.3
						c-0.5-1-1.3-1.7-2.2-2.3C123.4,92.6,122.4,92.3,121.2,92.3z"/>
				</g>
			</g>
			<g>
				<path class="st1" d="M156.5,108.3c-0.5,0-0.9-0.2-1.3-0.5c-0.3-0.3-0.5-0.8-0.5-1.3v-8.7l-4.4,5.2c-0.4,0.6-0.9,0.9-1.6,0.9
					c-0.7,0-1.3-0.4-1.7-1.1l-4.3-4.9v8.6c0,0.5-0.2,0.9-0.5,1.3c-0.3,0.3-0.8,0.5-1.3,0.5c-0.5,0-0.9-0.2-1.3-0.5
					c-0.3-0.3-0.5-0.8-0.5-1.3V90.9c0-0.5,0.2-0.9,0.5-1.3c0.3-0.3,0.8-0.5,1.3-0.5c0.7,0,1.2,0.3,1.6,1l6.3,8.8l6.1-8.8
					c0.4-0.7,0.9-1,1.6-1c0.5,0,0.9,0.2,1.3,0.5c0.3,0.3,0.5,0.8,0.5,1.3v15.6c0,0.5-0.2,1-0.5,1.3
					C157.5,108.1,157,108.3,156.5,108.3z"/>
			</g>
			<g>
				<path class="st1" d="M169.3,108.3c-0.5,0-0.9-0.2-1.3-0.5c-0.3-0.3-0.5-0.8-0.5-1.3V90.9c0-0.5,0.2-1,0.5-1.3
					c0.3-0.3,0.8-0.5,1.3-0.5h10.4c0.5,0,0.9,0.2,1.3,0.5c0.3,0.3,0.5,0.8,0.5,1.3c0,0.5-0.2,0.9-0.5,1.2c-0.3,0.3-0.8,0.5-1.3,0.5
					h-8.6v4.3h6c0.5,0,0.9,0.2,1.3,0.5c0.3,0.3,0.5,0.8,0.5,1.2c0,0.5-0.2,0.9-0.5,1.2c-0.3,0.3-0.8,0.5-1.3,0.5h-6v4.5h8.6
					c0.5,0,0.9,0.2,1.3,0.5c0.3,0.3,0.5,0.7,0.5,1.2c0,0.5-0.2,0.9-0.5,1.3c-0.3,0.3-0.8,0.5-1.3,0.5H169.3z"/>
			</g>
		</g>
		<g>
			<path class="st0" d="M51.8,124c-0.2,0-0.3-0.1-0.4-0.2s-0.2-0.3-0.2-0.4v-2.3h-3.5v2.3c0,0.2-0.1,0.3-0.2,0.4
				c-0.1,0.1-0.3,0.2-0.5,0.2c-0.2,0-0.3-0.1-0.4-0.2c-0.1-0.1-0.2-0.3-0.2-0.4v-5.6c0-0.2,0.1-0.3,0.2-0.5c0.1-0.1,0.3-0.2,0.4-0.2
				c0.2,0,0.3,0.1,0.5,0.2c0.1,0.1,0.2,0.3,0.2,0.5v2.2h3.5v-2.2c0-0.2,0.1-0.3,0.2-0.5c0.1-0.1,0.3-0.2,0.4-0.2
				c0.2,0,0.3,0.1,0.4,0.2c0.1,0.1,0.2,0.3,0.2,0.5v5.6c0,0.2-0.1,0.3-0.2,0.5C52.2,124,52,124,51.8,124z"/>
			<path class="st0" d="M58.6,124.1c-0.7,0-1.3-0.2-1.8-0.5c-0.5-0.3-1-0.7-1.2-1.3c-0.3-0.5-0.4-1.1-0.4-1.8s0.1-1.3,0.4-1.8
				c0.3-0.5,0.7-1,1.2-1.3c0.5-0.3,1.1-0.5,1.8-0.5c0.7,0,1.3,0.2,1.8,0.5c0.5,0.3,1,0.7,1.2,1.3c0.3,0.5,0.4,1.1,0.4,1.8
				c0,0.7-0.1,1.3-0.4,1.8c-0.3,0.5-0.7,1-1.2,1.3C59.9,124,59.3,124.1,58.6,124.1z M58.6,118.2c-0.4,0-0.8,0.1-1.2,0.3
				c-0.3,0.2-0.6,0.5-0.8,0.8c-0.2,0.4-0.3,0.8-0.3,1.2c0,0.4,0.1,0.8,0.3,1.2c0.2,0.4,0.5,0.6,0.8,0.8s0.7,0.3,1.2,0.3
				c0.4,0,0.8-0.1,1.2-0.3c0.3-0.2,0.6-0.5,0.8-0.8c0.2-0.4,0.3-0.8,0.3-1.2c0-0.4-0.1-0.8-0.3-1.2c-0.2-0.4-0.5-0.6-0.8-0.8
				C59.4,118.3,59,118.2,58.6,118.2z"/>
			<path class="st0" d="M66.3,124c-0.2,0-0.3-0.1-0.4-0.2c-0.1-0.1-0.2-0.3-0.2-0.4v-5.1h-1.6c-0.2,0-0.3-0.1-0.4-0.2
				c-0.1-0.1-0.2-0.3-0.2-0.4s0.1-0.3,0.2-0.4c0.1-0.1,0.3-0.2,0.4-0.2h4.4c0.2,0,0.3,0.1,0.4,0.2c0.1,0.1,0.2,0.3,0.2,0.4
				s-0.1,0.3-0.2,0.4c-0.1,0.1-0.3,0.2-0.4,0.2H67v5.1c0,0.2-0.1,0.3-0.2,0.4C66.7,124,66.5,124,66.3,124z"/>
			<path class="st0" d="M72,124c-0.2,0-0.3-0.1-0.4-0.2c-0.1-0.1-0.2-0.3-0.2-0.4v-5.6c0-0.2,0.1-0.3,0.2-0.5
				c0.1-0.1,0.3-0.2,0.4-0.2h3.8c0.2,0,0.3,0.1,0.4,0.2c0.1,0.1,0.2,0.3,0.2,0.4c0,0.2-0.1,0.3-0.2,0.4c-0.1,0.1-0.3,0.2-0.4,0.2
				h-3.1v1.6h2.2c0.2,0,0.3,0.1,0.4,0.2c0.1,0.1,0.2,0.3,0.2,0.4s-0.1,0.3-0.2,0.4c-0.1,0.1-0.3,0.2-0.4,0.2h-2.2v1.7h3.1
				c0.2,0,0.3,0.1,0.4,0.2c0.1,0.1,0.2,0.3,0.2,0.4c0,0.2-0.1,0.3-0.2,0.4c-0.1,0.1-0.3,0.2-0.4,0.2H72z"/>
			<path class="st0" d="M79.5,124c-0.2,0-0.3-0.1-0.4-0.2c-0.1-0.1-0.2-0.3-0.2-0.4v-5.6c0-0.2,0.1-0.3,0.2-0.4
				c0.1-0.1,0.3-0.2,0.4-0.2c0.2,0,0.3,0.1,0.4,0.2c0.1,0.1,0.2,0.3,0.2,0.4v5h2.8c0.2,0,0.3,0.1,0.4,0.2c0.1,0.1,0.2,0.3,0.2,0.4
				s-0.1,0.3-0.2,0.4c-0.1,0.1-0.3,0.2-0.4,0.2H79.5z"/>
			<path class="st0" d="M91.5,124.2c-0.6,0-1.1-0.2-1.4-0.5c-0.4-0.3-0.5-0.8-0.5-1.3c0-0.4,0.1-0.8,0.4-1.1c0.2-0.3,0.5-0.6,1-0.9
				l-0.3-0.3c-0.4-0.4-0.6-0.9-0.6-1.4c0-0.3,0.1-0.6,0.2-0.8c0.2-0.2,0.4-0.4,0.6-0.6c0.3-0.1,0.6-0.2,0.9-0.2
				c0.3,0,0.6,0.1,0.9,0.2c0.3,0.1,0.5,0.3,0.6,0.6c0.2,0.3,0.2,0.5,0.2,0.8c0,0.4-0.1,0.7-0.3,0.9c-0.1,0.2-0.4,0.5-0.7,0.7
				l1.2,1.2l0.5-0.6c0.1-0.2,0.3-0.2,0.4-0.2c0.1,0,0.2,0.1,0.3,0.2c0.1,0.1,0.2,0.3,0.2,0.4c0,0.1-0.1,0.3-0.2,0.4l-0.6,0.6
				l0.8,0.8c0.1,0.1,0.2,0.3,0.2,0.4c0,0.1-0.1,0.3-0.2,0.4c-0.1,0.1-0.3,0.2-0.4,0.2c-0.1,0-0.3-0.1-0.4-0.2l-0.8-0.8
				c-0.3,0.3-0.6,0.6-0.9,0.8C92.3,124.1,91.9,124.2,91.5,124.2z M91.6,121c-0.3,0.2-0.5,0.5-0.7,0.7c-0.1,0.2-0.2,0.4-0.2,0.6
				c0,0.3,0.1,0.4,0.2,0.6c0.1,0.1,0.3,0.2,0.6,0.2c0.3,0,0.5-0.1,0.7-0.2c0.2-0.1,0.4-0.3,0.7-0.5L91.6,121z M91.7,118.1
				c-0.2,0-0.3,0.1-0.5,0.2c-0.1,0.1-0.2,0.2-0.2,0.4c0,0.2,0.1,0.5,0.3,0.7l0.3,0.3c0.3-0.2,0.4-0.4,0.4-0.5
				c0.1-0.1,0.1-0.3,0.1-0.5c0-0.2-0.1-0.3-0.2-0.4C92,118.1,91.9,118.1,91.7,118.1z"/>
			<path class="st0" d="M107.2,124c-0.2,0-0.3-0.1-0.4-0.2s-0.2-0.3-0.2-0.4v-2.3h-3.5v2.3c0,0.2-0.1,0.3-0.2,0.4
				c-0.1,0.1-0.3,0.2-0.5,0.2c-0.2,0-0.3-0.1-0.4-0.2s-0.2-0.3-0.2-0.4v-5.6c0-0.2,0.1-0.3,0.2-0.5c0.1-0.1,0.3-0.2,0.4-0.2
				c0.2,0,0.3,0.1,0.5,0.2c0.1,0.1,0.2,0.3,0.2,0.5v2.2h3.5v-2.2c0-0.2,0.1-0.3,0.2-0.5c0.1-0.1,0.3-0.2,0.4-0.2
				c0.2,0,0.3,0.1,0.4,0.2c0.1,0.1,0.2,0.3,0.2,0.5v5.6c0,0.2-0.1,0.3-0.2,0.5C107.5,124,107.3,124,107.2,124z"/>
			<path class="st0" d="M113.9,124.1c-0.7,0-1.3-0.2-1.8-0.5c-0.5-0.3-1-0.7-1.2-1.3c-0.3-0.5-0.4-1.1-0.4-1.8s0.1-1.3,0.4-1.8
				c0.3-0.5,0.7-1,1.2-1.3c0.5-0.3,1.1-0.5,1.8-0.5c0.7,0,1.3,0.2,1.8,0.5c0.5,0.3,1,0.7,1.2,1.3c0.3,0.5,0.4,1.1,0.4,1.8
				s-0.1,1.3-0.4,1.8c-0.3,0.5-0.7,1-1.2,1.3C115.2,124,114.6,124.1,113.9,124.1z M113.9,118.2c-0.4,0-0.8,0.1-1.2,0.3
				c-0.3,0.2-0.6,0.5-0.8,0.8c-0.2,0.4-0.3,0.8-0.3,1.2c0,0.4,0.1,0.8,0.3,1.2c0.2,0.4,0.5,0.6,0.8,0.8c0.3,0.2,0.7,0.3,1.2,0.3
				s0.8-0.1,1.2-0.3s0.6-0.5,0.8-0.8c0.2-0.4,0.3-0.8,0.3-1.2c0-0.4-0.1-0.8-0.3-1.2c-0.2-0.4-0.5-0.6-0.8-0.8
				C114.7,118.3,114.3,118.2,113.9,118.2z"/>
			<path class="st0" d="M122.3,124.1c-0.6,0-1.1-0.1-1.6-0.4c-0.5-0.3-0.8-0.6-1-1.1c0-0.1-0.1-0.2-0.1-0.2c0-0.1,0.1-0.3,0.1-0.4
				c0.1-0.1,0.2-0.2,0.4-0.2l0.1,0c0.1,0,0.3,0,0.4,0.1c0.1,0.1,0.2,0.2,0.3,0.3c0.1,0.2,0.2,0.3,0.5,0.5c0.3,0.1,0.6,0.2,0.9,0.2
				c0.4,0,0.7-0.1,0.9-0.3c0.2-0.2,0.3-0.4,0.3-0.6c0-0.3-0.1-0.5-0.3-0.7c-0.2-0.2-0.5-0.3-1-0.4c-0.7-0.1-1.3-0.3-1.7-0.7
				c-0.4-0.4-0.7-0.8-0.7-1.4c0-0.4,0.1-0.7,0.3-1c0.2-0.3,0.5-0.5,0.9-0.7c0.4-0.1,0.8-0.2,1.3-0.2c0.5,0,1,0.1,1.3,0.3
				c0.4,0.2,0.7,0.5,0.9,0.9c0.1,0.1,0.1,0.3,0.1,0.4c0,0.2-0.1,0.3-0.3,0.5c-0.1,0.1-0.2,0.1-0.3,0.1c-0.1,0-0.2,0-0.3-0.1
				c-0.1-0.1-0.2-0.1-0.2-0.2c-0.1-0.2-0.3-0.4-0.5-0.5c-0.2-0.1-0.4-0.2-0.8-0.2c-0.4,0-0.7,0.1-0.9,0.2c-0.2,0.1-0.3,0.3-0.3,0.5
				c0,0.2,0.1,0.4,0.3,0.6c0.2,0.2,0.6,0.3,1.1,0.3c0.7,0.1,1.3,0.3,1.7,0.7c0.4,0.4,0.6,0.9,0.6,1.5c0,0.4-0.1,0.8-0.4,1.1
				c-0.2,0.3-0.6,0.6-0.9,0.7C123.1,124,122.7,124.1,122.3,124.1z"/>
			<path class="st0" d="M129.2,124c-0.2,0-0.3-0.1-0.4-0.2s-0.2-0.3-0.2-0.4v-5.1H127c-0.2,0-0.3-0.1-0.4-0.2
				c-0.1-0.1-0.2-0.3-0.2-0.4s0.1-0.3,0.2-0.4c0.1-0.1,0.3-0.2,0.4-0.2h4.4c0.2,0,0.3,0.1,0.4,0.2c0.1,0.1,0.2,0.3,0.2,0.4
				s-0.1,0.3-0.2,0.4c-0.1,0.1-0.3,0.2-0.4,0.2h-1.6v5.1c0,0.2-0.1,0.3-0.2,0.5C129.5,124,129.4,124,129.2,124z"/>
			<path class="st0" d="M134.9,124c-0.2,0-0.3-0.1-0.4-0.2s-0.2-0.3-0.2-0.4v-5.6c0-0.2,0.1-0.3,0.2-0.5c0.1-0.1,0.3-0.2,0.4-0.2
				h3.8c0.2,0,0.3,0.1,0.4,0.2c0.1,0.1,0.2,0.3,0.2,0.4c0,0.2-0.1,0.3-0.2,0.4c-0.1,0.1-0.3,0.2-0.4,0.2h-3.1v1.6h2.2
				c0.2,0,0.3,0.1,0.4,0.2c0.1,0.1,0.2,0.3,0.2,0.4s-0.1,0.3-0.2,0.4c-0.1,0.1-0.3,0.2-0.4,0.2h-2.2v1.7h3.1c0.2,0,0.3,0.1,0.4,0.2
				c0.1,0.1,0.2,0.3,0.2,0.4c0,0.2-0.1,0.3-0.2,0.4c-0.1,0.1-0.3,0.2-0.4,0.2H134.9z"/>
			<path class="st0" d="M142.4,124c-0.2,0-0.3-0.1-0.4-0.2c-0.1-0.1-0.2-0.3-0.2-0.4v-5.6c0-0.2,0.1-0.3,0.2-0.4s0.3-0.2,0.4-0.2
				c0.2,0,0.3,0.1,0.4,0.2s0.2,0.3,0.2,0.4v5h2.8c0.2,0,0.3,0.1,0.5,0.2c0.1,0.1,0.2,0.3,0.2,0.4s-0.1,0.3-0.2,0.4s-0.3,0.2-0.4,0.2
				H142.4z"/>
			<path class="st0" d="M151,124.1c-0.6,0-1.1-0.1-1.6-0.4c-0.5-0.3-0.8-0.6-1-1.1c0-0.1-0.1-0.2-0.1-0.2c0-0.1,0.1-0.3,0.1-0.4
				c0.1-0.1,0.2-0.2,0.4-0.2l0.1,0c0.1,0,0.2,0,0.4,0.1c0.1,0.1,0.2,0.2,0.3,0.3c0.1,0.2,0.2,0.3,0.5,0.5c0.3,0.1,0.6,0.2,0.9,0.2
				c0.4,0,0.7-0.1,0.9-0.3c0.2-0.2,0.3-0.4,0.3-0.6c0-0.3-0.1-0.5-0.3-0.7c-0.2-0.2-0.5-0.3-1-0.4c-0.7-0.1-1.3-0.3-1.7-0.7
				c-0.4-0.4-0.7-0.8-0.7-1.4c0-0.4,0.1-0.7,0.3-1c0.2-0.3,0.5-0.5,0.9-0.7c0.4-0.1,0.8-0.2,1.3-0.2c0.5,0,1,0.1,1.3,0.3
				c0.4,0.2,0.7,0.5,0.9,0.9c0.1,0.1,0.1,0.3,0.1,0.4c0,0.2-0.1,0.3-0.3,0.5c-0.1,0.1-0.2,0.1-0.3,0.1c-0.1,0-0.2,0-0.3-0.1
				c-0.1-0.1-0.2-0.1-0.2-0.2c-0.1-0.2-0.3-0.4-0.5-0.5c-0.2-0.1-0.4-0.2-0.8-0.2c-0.4,0-0.7,0.1-0.9,0.2c-0.2,0.1-0.3,0.3-0.3,0.5
				c0,0.2,0.1,0.4,0.3,0.6c0.2,0.2,0.6,0.3,1.1,0.3c0.7,0.1,1.3,0.3,1.7,0.7c0.4,0.4,0.6,0.9,0.6,1.5c0,0.4-0.1,0.8-0.4,1.1
				c-0.2,0.3-0.6,0.6-0.9,0.7C151.8,124,151.4,124.1,151,124.1z"/>
		</g>
		<g>
			<path class="st1" d="M106,46.4c-0.5,0-1-0.1-1.5-0.4c-0.4-0.3-0.7-0.6-0.8-1l-3.6-11L96.3,45c-0.2,0.4-0.5,0.8-0.9,1
				c-0.4,0.3-0.9,0.4-1.4,0.4c-0.5,0-1-0.1-1.4-0.4c-0.4-0.2-0.7-0.6-0.9-1l-5.9-15.4c-0.1-0.3-0.2-0.5-0.2-0.8
				c0-0.5,0.2-0.9,0.6-1.2c0.3-0.2,0.7-0.5,1.5-0.5c0.5,0,1,0.1,1.4,0.4c0.4,0.2,0.7,0.6,0.9,1l4,11l3.7-10.8
				c0.1-0.4,0.4-0.7,0.8-0.9c0.4-0.2,0.9-0.3,1.4-0.3c0.5,0,0.9,0.1,1.3,0.3c0.4,0.2,0.7,0.6,0.9,0.9l3.8,10.9l4.1-11.2
				c0.1-0.4,0.4-0.7,0.9-0.9c0.4-0.2,0.9-0.3,1.4-0.3c0.8,0,1.3,0.3,1.5,0.5c0.3,0.3,0.5,0.7,0.5,1.1c0,0.3-0.1,0.6-0.2,0.8
				L108.3,45c-0.2,0.4-0.5,0.7-0.9,1C107,46.3,106.5,46.4,106,46.4z"/>
		</g>
	</g>
</g>
</svg>
